<?xml version="1.0" encoding="utf-8"?>
<!-- Generator: Adobe Illustrator 26.1.0, SVG Export Plug-In . SVG Version: 6.00 Build 0)  -->
<svg version="1.2" baseProfile="tiny" id="g-chart_top50-_Recovered_-Artboard_1-interactions-img" xmlns="http://www.w3.org/2000/svg" xmlns:xlink="http://www.w3.org/1999/xlink"
	 x="0px" y="0px" viewBox="0 0 759.776 450.204" overflow="visible" xml:space="preserve">
<g>
	
		<path fill="#2A788E" fill-opacity="0.502" stroke="#2A788E" stroke-width="0.8862" stroke-linejoin="round" stroke-opacity="0.502" d="
		M652.248,324.499c1.058,0,2.072-0.42,2.82-1.168s1.168-1.762,1.168-2.82c0-1.058-0.42-2.072-1.168-2.82
		c-0.748-0.748-1.762-1.168-2.82-1.168s-2.072,0.42-2.82,1.168c-0.748,0.748-1.168,1.762-1.168,2.82c0,1.058,0.42,2.072,1.168,2.82
		S651.19,324.499,652.248,324.499z"/>
	<g>
		<path fill="none" stroke="#000000" stroke-miterlimit="10" d="M635.775,318.945c-25.597,0-46.348-20.751-46.348-46.348
			c0-23.577,17.604-43.042,40.385-45.968"/>
		<g>
			<polygon points="627.329,230.658 628.594,226.839 626.723,223.277 635.775,226.249 			"/>
		</g>
	</g>
</g>
<style>
#g-chart_top50-_Recovered_-Artboard_1-interactions-img rect, #g-chart_top50-_Recovered_-Artboard_1-interactions-img circle, #g-chart_top50-_Recovered_-Artboard_1-interactions-img path, #g-chart_top50-_Recovered_-Artboard_1-interactions-img line, #g-chart_top50-_Recovered_-Artboard_1-interactions-img polyline, #g-chart_top50-_Recovered_-Artboard_1-interactions-img polygon { vector-effect: non-scaling-stroke; }
</style>
</svg>

