<svg xmlns="http://www.w3.org/2000/svg" width="1005" height="600"><rect width="1005" height="600" x="0" y="0" fill="#FFFFFF" id="backgorund"/><g id="viz"><g transform="translate(0,0)"><g transform="translate(50,20)"><g class="bars"><rect id="undefined - pct_12_to_17" x="523.6795314044023" y="516.7555555555556" height="43.24444444444441" width="22.05991273360523" fill="#1f77b4"/><rect id="undefined - pct_18_to_25" x="546.7253840871359" y="419.06666666666666" height="140.93333333333334" width="22.05991273360523" fill="#ff7f0e"/><rect id="undefined - pct_26_plus" x="569.7712367698697" y="4.044444444444393" height="555.9555555555556" width="22.05991273360523" fill="#2ca02c"/><rect id="undefined - pct_12_to_17" x="671.8838037675532" y="521.4222222222222" height="38.57777777777778" width="22.05991273360523" fill="#1f77b4"/><rect id="undefined - pct_18_to_25" x="694.9296564502869" y="376.1333333333333" height="183.86666666666667" width="22.05991273360523" fill="#ff7f0e"/><rect id="undefined - pct_26_plus" x="717.9755091330206" y="8.400000000000007" height="551.6" width="22.05991273360523" fill="#2ca02c"/><rect id="undefined - pct_12_to_17" x="79.06671431494962" y="522.3555555555556" height="37.64444444444439" width="22.05991273360523" fill="#1f77b4"/><rect id="undefined - pct_18_to_25" x="102.11256699768337" y="408.1777777777778" height="151.8222222222222" width="22.05991273360523" fill="#ff7f0e"/><rect id="undefined - pct_26_plus" x="125.15841968041713" y="49.15555555555553" height="510.8444444444445" width="22.05991273360523" fill="#2ca02c"/><rect id="undefined - pct_12_to_17" x="301.37312285967596" y="522.6666666666666" height="37.33333333333337" width="22.05991273360523" fill="#1f77b4"/><rect id="undefined - pct_18_to_25" x="324.4189755424097" y="428.0888888888889" height="131.9111111111111" width="22.05991273360523" fill="#ff7f0e"/><rect id="undefined - pct_26_plus" x="347.4648282251435" y="121.02222222222224" height="438.97777777777776" width="22.05991273360523" fill="#2ca02c"/><rect id="undefined - pct_12_to_17" x="449.57739522282685" y="523.2888888888889" height="36.71111111111111" width="22.05991273360523" fill="#1f77b4"/><rect id="undefined - pct_18_to_25" x="472.6232479055606" y="461.68888888888887" height="98.31111111111113" width="22.05991273360523" fill="#ff7f0e"/><rect id="undefined - pct_26_plus" x="495.6691005882943" y="211.8666666666667" height="348.1333333333333" width="22.05991273360523" fill="#2ca02c"/><rect id="undefined - pct_12_to_17" x="4.964578133374175" y="526.0888888888888" height="33.911111111111154" width="22.05991273360523" fill="#1f77b4"/><rect id="undefined - pct_18_to_25" x="28.010430816107927" y="432.7555555555556" height="127.24444444444441" width="22.05991273360523" fill="#ff7f0e"/><rect id="undefined - pct_26_plus" x="51.05628349884168" y="123.20000000000005" height="436.79999999999995" width="22.05991273360523" fill="#2ca02c"/><rect id="undefined - pct_12_to_17" x="227.2709866781005" y="527.3333333333334" height="32.66666666666663" width="22.05991273360523" fill="#1f77b4"/><rect id="undefined - pct_18_to_25" x="250.31683936083425" y="439.9111111111111" height="120.0888888888889" width="22.05991273360523" fill="#ff7f0e"/><rect id="undefined - pct_26_plus" x="273.362692043568" y="197.24444444444444" height="362.7555555555556" width="22.05991273360523" fill="#2ca02c"/><rect id="undefined - pct_12_to_17" x="597.7816675859779" y="527.6444444444444" height="32.35555555555561" width="22.05991273360523" fill="#1f77b4"/><rect id="undefined - pct_18_to_25" x="620.8275202687115" y="454.5333333333333" height="105.4666666666667" width="22.05991273360523" fill="#ff7f0e"/><rect id="undefined - pct_26_plus" x="643.8733729514453" y="362.1333333333334" height="197.86666666666662" width="22.05991273360523" fill="#2ca02c"/><rect id="undefined - pct_12_to_17" x="153.16885049652507" y="527.9555555555556" height="32.044444444444366" width="22.05991273360523" fill="#1f77b4"/><rect id="undefined - pct_18_to_25" x="176.21470317925883" y="411.6000000000001" height="148.39999999999992" width="22.05991273360523" fill="#ff7f0e"/><rect id="undefined - pct_26_plus" x="199.26055586199257" y="200.35555555555555" height="359.64444444444445" width="22.05991273360523" fill="#2ca02c"/><rect id="undefined - pct_12_to_17" x="375.47525904125143" y="528.2666666666667" height="31.73333333333335" width="22.05991273360523" fill="#1f77b4"/><rect id="undefined - pct_18_to_25" x="398.5211117239852" y="420" height="140" width="22.05991273360523" fill="#ff7f0e"/><rect id="undefined - pct_26_plus" x="421.56696440671897" y="144.35555555555555" height="415.64444444444445" width="22.05991273360523" fill="#2ca02c"/></g><g id="xAxis" transform="translate(0,560)" fill="none" font-size="10" font-family="sans-serif" text-anchor="middle"><path class="domain" stroke="currentColor" d="M0,0H745"/><g class="tick" opacity="1" transform="translate(39.04038718291054,0)"><line stroke="currentColor" y2="6"/><text fill="currentColor" y="9" dy="0.71em">Alaska</text></g><g class="tick" opacity="1" transform="translate(113.14252336448598,0)"><line stroke="currentColor" y2="6"/><text fill="currentColor" y="9" dy="0.71em">Colorado</text></g><g class="tick" opacity="1" transform="translate(187.24465954606143,0)"><line stroke="currentColor" y2="6"/><text fill="currentColor" y="9" dy="0.71em">Connecticut</text></g><g class="tick" opacity="1" transform="translate(261.3467957276369,0)"><line stroke="currentColor" y2="6"/><text fill="currentColor" y="9" dy="0.71em">Illinois</text></g><g class="tick" opacity="1" transform="translate(335.4489319092123,0)"><line stroke="currentColor" y2="6"/><text fill="currentColor" y="9" dy="0.71em">Montana</text></g><g class="tick" opacity="1" transform="translate(409.5510680907878,0)"><line stroke="currentColor" y2="6"/><text fill="currentColor" y="9" dy="0.71em">New Hampshire</text></g><g class="tick" opacity="1" transform="translate(483.6532042723632,0)"><line stroke="currentColor" y2="6"/><text fill="currentColor" y="9" dy="0.71em">New Mexico</text></g><g class="tick" opacity="1" transform="translate(557.7553404539386,0)"><line stroke="currentColor" y2="6"/><text fill="currentColor" y="9" dy="0.71em">Oregon</text></g><g class="tick" opacity="1" transform="translate(631.8574766355142,0)"><line stroke="currentColor" y2="6"/><text fill="currentColor" y="9" dy="0.71em">Utah</text></g><g class="tick" opacity="1" transform="translate(705.9596128170896,0)"><line stroke="currentColor" y2="6"/><text fill="currentColor" y="9" dy="0.71em">Vermont</text></g></g><g id="yAxis" fill="none" font-size="10" font-family="sans-serif" text-anchor="end"><path class="domain" stroke="currentColor" d="M0,560V0"/><g class="tick" opacity="1" transform="translate(0,560)"><line stroke="currentColor" x2="-6"/><text fill="currentColor" x="-9" dy="0.32em">0</text></g><g class="tick" opacity="1" transform="translate(0,497.77777777777777)"><line stroke="currentColor" x2="-6"/><text fill="currentColor" x="-9" dy="0.32em">2</text></g><g class="tick" opacity="1" transform="translate(0,435.55555555555554)"><line stroke="currentColor" x2="-6"/><text fill="currentColor" x="-9" dy="0.32em">4</text></g><g class="tick" opacity="1" transform="translate(0,373.33333333333337)"><line stroke="currentColor" x2="-6"/><text fill="currentColor" x="-9" dy="0.32em">6</text></g><g class="tick" opacity="1" transform="translate(0,311.11111111111114)"><line stroke="currentColor" x2="-6"/><text fill="currentColor" x="-9" dy="0.32em">8</text></g><g class="tick" opacity="1" transform="translate(0,248.88888888888889)"><line stroke="currentColor" x2="-6"/><text fill="currentColor" x="-9" dy="0.32em">10</text></g><g class="tick" opacity="1" transform="translate(0,186.66666666666669)"><line stroke="currentColor" x2="-6"/><text fill="currentColor" x="-9" dy="0.32em">12</text></g><g class="tick" opacity="1" transform="translate(0,124.44444444444444)"><line stroke="currentColor" x2="-6"/><text fill="currentColor" x="-9" dy="0.32em">14</text></g><g class="tick" opacity="1" transform="translate(0,62.22222222222225)"><line stroke="currentColor" x2="-6"/><text fill="currentColor" x="-9" dy="0.32em">16</text></g><g class="tick" opacity="1" transform="translate(0,0)"><line stroke="currentColor" x2="-6"/><text fill="currentColor" x="-9" dy="0.32em">18</text></g></g><text y="556" x="745" text-anchor="end" style="font-family: Arial, sans-serif; font-size: 12px; fill: rgb(123, 123, 123); font-weight: bold;">Sets</text><text y="0" x="4" dominant-baseline="hanging" text-anchor="start" style="font-family: Arial, sans-serif; font-size: 12px; fill: rgb(123, 123, 123); font-weight: bold;">Value</text></g><text x="4" y="4" style="font-family: Arial, sans-serif; font-size: 12px; fill: black; font-weight: bold; dominant-baseline: hanging;"/></g><g id="grid"><rect x="0" y="0" width="805" height="600" fill="none" stroke="#ccc"/></g></g><g id="legend" transform="translate(805,20)"><g transform="translate(5,0)"><g class="legendColor" transform="translate(0,0)"><g class="legendCells" transform="translate(0,15.5)"><g class="cell" transform="translate(0, 0)"><rect class="swatch" height="15" width="15" style="fill: rgb(31, 119, 180);"/><text class="label" transform="translate( 20, 12.5)" font-family="&quot;Arial&quot;, sans-serif" font-size="10px"><tspan x="0" dy="0em">pct_12_to_17</tspan></text></g><g class="cell" transform="translate(0, 20.5)"><rect class="swatch" height="15" width="15" style="fill: rgb(255, 127, 14);"/><text class="label" transform="translate( 20, 12.5)" font-family="&quot;Arial&quot;, sans-serif" font-size="10px"><tspan x="0" dy="0em">pct_18_to_25</tspan></text></g><g class="cell" transform="translate(0, 41)"><rect class="swatch" height="15" width="15" style="fill: rgb(44, 160, 44);"/><text class="label" transform="translate( 20, 12.5)" font-family="&quot;Arial&quot;, sans-serif" font-size="10px"><tspan x="0" dy="0em">pct_26_plus</tspan></text></g></g><text class="legendTitle" font-family="&quot;Arial&quot;, sans-serif" font-size="12px" font-weight="bold"><tspan x="0" dy="0em">Colors</tspan></text></g></g></g></svg>