<svg xmlns="http://www.w3.org/2000/svg" width="1025" height="500"><rect width="1025" height="500" x="0" y="0" fill="#FFFFFF" id="backgorund"/><g id="viz"><clipPath id="serieClipPath"><rect x="-50" y="-17" width="412.5" height="500"/></clipPath><g id="CO" transform="translate(0,0)"><g transform="translate(50,17)" clip-path="url(#serieClipPath)"><g id="axis"><g transform="translate(0,463)" fill="none" font-size="10" font-family="sans-serif" text-anchor="middle"><path class="domain" stroke="currentColor" d="M0,6V0H347.5V6"/><g class="tick" opacity="1" transform="translate(0,0)"><line stroke="currentColor" y2="6"/><text fill="currentColor" y="9" dy="0.71em">2011</text></g><g class="tick" opacity="1" transform="translate(69.4619386637459,0)"><line stroke="currentColor" y2="6"/><text fill="currentColor" y="9" dy="0.71em">2012</text></g><g class="tick" opacity="1" transform="translate(139.11418400876232,0)"><line stroke="currentColor" y2="6"/><text fill="currentColor" y="9" dy="0.71em">2013</text></g><g class="tick" opacity="1" transform="translate(208.5761226725082,0)"><line stroke="currentColor" y2="6"/><text fill="currentColor" y="9" dy="0.71em">2014</text></g><g class="tick" opacity="1" transform="translate(278.03806133625415,0)"><line stroke="currentColor" y2="6"/><text fill="currentColor" y="9" dy="0.71em">2015</text></g><g class="tick" opacity="1" transform="translate(347.5,0)"><line stroke="currentColor" y2="6"/><text fill="currentColor" y="9" dy="0.71em">2016</text></g><text x="347.5" dy="-5" text-anchor="end" style="font-family: Arial, sans-serif; font-size: 12px; fill: rgb(123, 123, 123); font-weight: bold;">quarter</text></g><g transform="translate(0,0)" fill="none" font-size="10" font-family="sans-serif" text-anchor="end"><path class="domain" stroke="currentColor" d="M0,463V0"/><g class="tick" opacity="1" transform="translate(0,463)"><line stroke="currentColor" x2="-6"/><text fill="currentColor" x="-9" dy="0.32em">0.000</text></g><g class="tick" opacity="1" transform="translate(0,429.92857142857144)"><line stroke="currentColor" x2="-6"/><text fill="currentColor" x="-9" dy="0.32em">0.001</text></g><g class="tick" opacity="1" transform="translate(0,396.8571428571429)"><line stroke="currentColor" x2="-6"/><text fill="currentColor" x="-9" dy="0.32em">0.002</text></g><g class="tick" opacity="1" transform="translate(0,363.7857142857143)"><line stroke="currentColor" x2="-6"/><text fill="currentColor" x="-9" dy="0.32em">0.003</text></g><g class="tick" opacity="1" transform="translate(0,330.7142857142857)"><line stroke="currentColor" x2="-6"/><text fill="currentColor" x="-9" dy="0.32em">0.004</text></g><g class="tick" opacity="1" transform="translate(0,297.6428571428571)"><line stroke="currentColor" x2="-6"/><text fill="currentColor" x="-9" dy="0.32em">0.005</text></g><g class="tick" opacity="1" transform="translate(0,264.57142857142856)"><line stroke="currentColor" x2="-6"/><text fill="currentColor" x="-9" dy="0.32em">0.006</text></g><g class="tick" opacity="1" transform="translate(0,231.5)"><line stroke="currentColor" x2="-6"/><text fill="currentColor" x="-9" dy="0.32em">0.007</text></g><g class="tick" opacity="1" transform="translate(0,198.42857142857144)"><line stroke="currentColor" x2="-6"/><text fill="currentColor" x="-9" dy="0.32em">0.008</text></g><g class="tick" opacity="1" transform="translate(0,165.3571428571429)"><line stroke="currentColor" x2="-6"/><text fill="currentColor" x="-9" dy="0.32em">0.009</text></g><g class="tick" opacity="1" transform="translate(0,132.28571428571428)"><line stroke="currentColor" x2="-6"/><text fill="currentColor" x="-9" dy="0.32em">0.010</text></g><g class="tick" opacity="1" transform="translate(0,99.21428571428572)"><line stroke="currentColor" x2="-6"/><text fill="currentColor" x="-9" dy="0.32em">0.011</text></g><g class="tick" opacity="1" transform="translate(0,66.14285714285717)"><line stroke="currentColor" x2="-6"/><text fill="currentColor" x="-9" dy="0.32em">0.012</text></g><g class="tick" opacity="1" transform="translate(0,33.071428571428605)"><line stroke="currentColor" x2="-6"/><text fill="currentColor" x="-9" dy="0.32em">0.013</text></g><g class="tick" opacity="1" transform="translate(0,0)"><line stroke="currentColor" x2="-6"/><text fill="currentColor" x="-9" dy="0.32em">0.014</text></g><text x="4" text-anchor="start" dominant-baseline="hanging" style="font-family: Arial, sans-serif; font-size: 12px; fill: rgb(123, 123, 123); font-weight: bold;">search_rate</text></g></g><g id="viz"><g id="white"><path d="M8.563800657174152,312.86088524012143C17.028483251186564,312.86088524012143,17.028483251186564,330.20640846948595,25.493165845198977,330.20640846948595C34.247273183643664,330.20640846948595,34.247273183643664,345.19596333749683,43.001380522088354,345.19596333749683C51.75945258305951,345.19596333749683,51.75945258305951,337.789189465437,60.517524644030665,337.789189465437C69.27163198247536,337.789189465437,69.27163198247536,314.40682280385437,78.02573932092004,314.40682280385437C86.58557525556773,314.40682280385437,86.58557525556773,312.93844851795785,95.14541119021541,312.93844851795785C103.8995185286601,312.93844851795785,103.8995185286601,353.33268784854226,112.65362586710478,353.33268784854226C130.16580526652064,353.33268784854226,130.16580526652064,385.0678550942267,147.6779846659365,385.0678550942267C156.1426672599489,385.0678550942267,156.1426672599489,399.08039178643736,164.6073498539613,399.08039178643736C173.361457192406,399.08039178643736,173.361457192406,409.90151422888124,182.1155645308507,409.90151422888124C190.87363659182182,409.90151422888124,190.87363659182182,417.2654541404077,199.63170865279298,417.2654541404077C208.38581599123768,417.2654541404077,208.38581599123768,418.26728056980005,217.13992332968235,418.26728056980005C225.60460592369475,418.26728056980005,225.60460592369475,429.0930698944337,234.06928851770718,429.0930698944337C242.82339585615188,429.0930698944337,242.82339585615188,422.4344643181661,251.57750319459655,422.4344643181661C260.33557525556773,422.4344643181661,260.33557525556773,417.0102702465488,269.0936473165389,417.0102702465488C277.8477546549836,417.0102702465488,277.8477546549836,407.9043263031295,286.60186199342826,407.9043263031295C295.0665445874407,407.9043263031295,295.0665445874407,420.15396194753737,303.5312271814531,420.15396194753737C312.2853345198978,420.15396194753737,312.2853345198978,417.4530115790935,321.03944185834246,417.4530115790935C329.7975139193136,417.4530115790935,329.7975139193136,412.036930630545,338.5555859802848,412.036930630545" stroke="#2ca02c" fill="none"/><text font-family="sans-serif" font-size="10" class="labels" x="8.563800657174152" y="312.86088524012143" dx="0" dy="-4" text-anchor="middle">white</text></g><g id="black"><path d="M8.563800657174152,71.9727184316942C17.028483251186564,71.9727184316942,17.028483251186564,113.61877452460206,25.493165845198977,113.61877452460206C34.247273183643664,113.61877452460206,34.247273183643664,204.98003489048497,43.001380522088354,204.98003489048497C51.75945258305951,204.98003489048497,51.75945258305951,14.91139308565118,60.517524644030665,14.91139308565118C69.27163198247536,14.91139308565118,69.27163198247536,99.30207486862874,78.02573932092004,99.30207486862874C86.58557525556773,99.30207486862874,86.58557525556773,64.94870325261583,95.14541119021541,64.94870325261583C103.8995185286601,64.94870325261583,103.8995185286601,107.52065311972474,112.65362586710478,107.52065311972474C130.16580526652064,107.52065311972474,130.16580526652064,218.0264550264553,147.6779846659365,218.0264550264553C156.1426672599489,218.0264550264553,156.1426672599489,259.09138453069306,164.6073498539613,259.09138453069306C173.361457192406,259.09138453069306,173.361457192406,312.4120590442856,182.1155645308507,312.4120590442856C190.87363659182182,312.4120590442856,190.87363659182182,303.6196213425141,199.63170865279298,303.6196213425141C208.38581599123768,303.6196213425141,208.38581599123768,342.87130922111226,217.13992332968235,342.87130922111226C225.60460592369475,342.87130922111226,225.60460592369475,346.7745321770885,234.06928851770718,346.7745321770885C242.82339585615188,346.7745321770885,242.82339585615188,346.01581686795987,251.57750319459655,346.01581686795987C260.33557525556773,346.01581686795987,260.33557525556773,401.86981779773015,269.0936473165389,401.86981779773015C277.8477546549836,401.86981779773015,277.8477546549836,255.69384745048765,286.60186199342826,255.69384745048765C295.0665445874407,255.69384745048765,295.0665445874407,296.42127986184664,303.5312271814531,296.42127986184664C312.2853345198978,296.42127986184664,312.2853345198978,334.60881822803856,321.03944185834246,334.60881822803856C329.7975139193136,334.60881822803856,329.7975139193136,292.9044819985325,338.5555859802848,292.9044819985325" stroke="#1f77b4" fill="none"/><text font-family="sans-serif" font-size="10" class="labels" x="60.517524644030665" y="14.91139308565118" dx="0" dy="-4" text-anchor="middle">black</text></g><g id="hispanic"><path d="M8.563800657174152,68.74601360099996C17.028483251186564,68.74601360099996,17.028483251186564,188.00584203147005,25.493165845198977,188.00584203147005C34.247273183643664,188.00584203147005,34.247273183643664,248.1313570353284,43.001380522088354,248.1313570353284C51.75945258305951,248.1313570353284,51.75945258305951,203.98560748614187,60.517524644030665,203.98560748614187C69.27163198247536,203.98560748614187,69.27163198247536,153.95070086774206,78.02573932092004,153.95070086774206C86.58557525556773,153.95070086774206,86.58557525556773,218.33493737492088,95.14541119021541,218.33493737492088C103.8995185286601,218.33493737492088,103.8995185286601,150.405150265881,112.65362586710478,150.405150265881C130.16580526652064,150.405150265881,130.16580526652064,251.4623137186419,147.6779846659365,251.4623137186419C156.1426672599489,251.4623137186419,156.1426672599489,314.48400997409794,164.6073498539613,314.48400997409794C173.361457192406,314.48400997409794,173.361457192406,303.5454721221951,182.1155645308507,303.5454721221951C190.87363659182182,303.5454721221951,190.87363659182182,329.7907012429061,199.63170865279298,329.7907012429061C208.38581599123768,329.7907012429061,208.38581599123768,357.57716402663675,217.13992332968235,357.57716402663675C225.60460592369475,357.57716402663675,225.60460592369475,380.08365375499267,234.06928851770718,380.08365375499267C242.82339585615188,380.08365375499267,242.82339585615188,360.6630545167819,251.57750319459655,360.6630545167819C260.33557525556773,360.6630545167819,260.33557525556773,373.9361232113413,269.0936473165389,373.9361232113413C277.8477546549836,373.9361232113413,277.8477546549836,288.0188964474709,286.60186199342826,288.0188964474709C295.0665445874407,288.0188964474709,295.0665445874407,345.61684303351245,303.5312271814531,345.61684303351245C312.2853345198978,345.61684303351245,312.2853345198978,326.6707074523076,321.03944185834246,326.6707074523076C329.7975139193136,326.6707074523076,329.7975139193136,283.1265039031698,338.5555859802848,283.1265039031698" stroke="#ff7f0e" fill="none"/><text font-family="sans-serif" font-size="10" class="labels" x="8.563800657174152" y="68.74601360099996" dx="0" dy="-4" text-anchor="middle">hispanic</text></g></g></g><text y="4" x="4" style="font-family: Arial, sans-serif; font-size: 12px; fill: black; font-weight: bold; dominant-baseline: hanging;">CO</text></g><g id="WA" transform="translate(412.5,0)"><g transform="translate(50,17)" clip-path="url(#serieClipPath)"><g id="axis"><g transform="translate(0,463)" fill="none" font-size="10" font-family="sans-serif" text-anchor="middle"><path class="domain" stroke="currentColor" d="M0,6V0H347.5V6"/><g class="tick" opacity="1" transform="translate(0,0)"><line stroke="currentColor" y2="6"/><text fill="currentColor" y="9" dy="0.71em">2011</text></g><g class="tick" opacity="1" transform="translate(69.4619386637459,0)"><line stroke="currentColor" y2="6"/><text fill="currentColor" y="9" dy="0.71em">2012</text></g><g class="tick" opacity="1" transform="translate(139.11418400876232,0)"><line stroke="currentColor" y2="6"/><text fill="currentColor" y="9" dy="0.71em">2013</text></g><g class="tick" opacity="1" transform="translate(208.5761226725082,0)"><line stroke="currentColor" y2="6"/><text fill="currentColor" y="9" dy="0.71em">2014</text></g><g class="tick" opacity="1" transform="translate(278.03806133625415,0)"><line stroke="currentColor" y2="6"/><text fill="currentColor" y="9" dy="0.71em">2015</text></g><g class="tick" opacity="1" transform="translate(347.5,0)"><line stroke="currentColor" y2="6"/><text fill="currentColor" y="9" dy="0.71em">2016</text></g><text x="347.5" dy="-5" text-anchor="end" display="none" style="font-family: Arial, sans-serif; font-size: 12px; fill: rgb(123, 123, 123); font-weight: bold;">quarter</text></g><g transform="translate(0,0)" fill="none" font-size="10" font-family="sans-serif" text-anchor="end"><path class="domain" stroke="currentColor" d="M0,463V0"/><g class="tick" opacity="1" transform="translate(0,463)"><line stroke="currentColor" x2="-6"/><text fill="currentColor" x="-9" dy="0.32em">0.000</text></g><g class="tick" opacity="1" transform="translate(0,429.92857142857144)"><line stroke="currentColor" x2="-6"/><text fill="currentColor" x="-9" dy="0.32em">0.001</text></g><g class="tick" opacity="1" transform="translate(0,396.8571428571429)"><line stroke="currentColor" x2="-6"/><text fill="currentColor" x="-9" dy="0.32em">0.002</text></g><g class="tick" opacity="1" transform="translate(0,363.7857142857143)"><line stroke="currentColor" x2="-6"/><text fill="currentColor" x="-9" dy="0.32em">0.003</text></g><g class="tick" opacity="1" transform="translate(0,330.7142857142857)"><line stroke="currentColor" x2="-6"/><text fill="currentColor" x="-9" dy="0.32em">0.004</text></g><g class="tick" opacity="1" transform="translate(0,297.6428571428571)"><line stroke="currentColor" x2="-6"/><text fill="currentColor" x="-9" dy="0.32em">0.005</text></g><g class="tick" opacity="1" transform="translate(0,264.57142857142856)"><line stroke="currentColor" x2="-6"/><text fill="currentColor" x="-9" dy="0.32em">0.006</text></g><g class="tick" opacity="1" transform="translate(0,231.5)"><line stroke="currentColor" x2="-6"/><text fill="currentColor" x="-9" dy="0.32em">0.007</text></g><g class="tick" opacity="1" transform="translate(0,198.42857142857144)"><line stroke="currentColor" x2="-6"/><text fill="currentColor" x="-9" dy="0.32em">0.008</text></g><g class="tick" opacity="1" transform="translate(0,165.3571428571429)"><line stroke="currentColor" x2="-6"/><text fill="currentColor" x="-9" dy="0.32em">0.009</text></g><g class="tick" opacity="1" transform="translate(0,132.28571428571428)"><line stroke="currentColor" x2="-6"/><text fill="currentColor" x="-9" dy="0.32em">0.010</text></g><g class="tick" opacity="1" transform="translate(0,99.21428571428572)"><line stroke="currentColor" x2="-6"/><text fill="currentColor" x="-9" dy="0.32em">0.011</text></g><g class="tick" opacity="1" transform="translate(0,66.14285714285717)"><line stroke="currentColor" x2="-6"/><text fill="currentColor" x="-9" dy="0.32em">0.012</text></g><g class="tick" opacity="1" transform="translate(0,33.071428571428605)"><line stroke="currentColor" x2="-6"/><text fill="currentColor" x="-9" dy="0.32em">0.013</text></g><g class="tick" opacity="1" transform="translate(0,0)"><line stroke="currentColor" x2="-6"/><text fill="currentColor" x="-9" dy="0.32em">0.014</text></g><text x="4" text-anchor="start" dominant-baseline="hanging" display="none" style="font-family: Arial, sans-serif; font-size: 12px; fill: rgb(123, 123, 123); font-weight: bold;">search_rate</text></g></g><g id="viz"><g id="white"><path d="M8.563800657174152,395.0838864041816C17.028483251186564,395.0838864041816,17.028483251186564,387.50424876687805,25.493165845198977,387.50424876687805C34.247273183643664,387.50424876687805,34.247273183643664,397.52384207841385,43.001380522088354,397.52384207841385C51.75945258305951,397.52384207841385,51.75945258305951,373.8661081358148,60.517524644030665,373.8661081358148C69.27163198247536,373.8661081358148,69.27163198247536,370.74997353789206,78.02573932092004,370.74997353789206C86.58557525556773,370.74997353789206,86.58557525556773,375.90276074163654,95.14541119021541,375.90276074163654C103.8995185286601,375.90276074163654,103.8995185286601,383.47082039835107,112.65362586710478,383.47082039835107C130.16580526652064,383.47082039835107,130.16580526652064,431.5481563649325,147.6779846659365,431.5481563649325C156.1426672599489,431.5481563649325,156.1426672599489,434.13875496761125,164.6073498539613,434.13875496761125C173.361457192406,434.13875496761125,173.361457192406,430.36333838508443,182.1155645308507,430.36333838508443C190.87363659182182,430.36333838508443,190.87363659182182,436.16564274950736,199.63170865279298,436.16564274950736C208.38581599123768,436.16564274950736,208.38581599123768,426.7626929946381,217.13992332968235,426.7626929946381C225.60460592369475,426.7626929946381,225.60460592369475,436.2892622562785,234.06928851770718,436.2892622562785C242.82339585615188,436.2892622562785,242.82339585615188,443.2223453187051,251.57750319459655,443.2223453187051C260.33557525556773,443.2223453187051,260.33557525556773,443.38043799718736,269.0936473165389,443.38043799718736C277.8477546549836,443.38043799718736,277.8477546549836,439.11711383316026,286.60186199342826,439.11711383316026C295.0665445874407,439.11711383316026,295.0665445874407,439.62655385026943,303.5312271814531,439.62655385026943C312.2853345198978,439.62655385026943,312.2853345198978,448.0599482029569,321.03944185834246,448.0599482029569C329.7975139193136,448.0599482029569,329.7975139193136,438.6167950251942,338.5555859802848,438.6167950251942" stroke="#2ca02c" fill="none"/><text font-family="sans-serif" font-size="10" class="labels" x="78.02573932092004" y="370.74997353789206" dx="0" dy="-4" text-anchor="middle">white</text></g><g id="black"><path d="M8.563800657174152,310.92514011768776C17.028483251186564,310.92514011768776,17.028483251186564,326.24702175839434,25.493165845198977,326.24702175839434C34.247273183643664,326.24702175839434,34.247273183643664,346.64235451804046,43.001380522088354,346.64235451804046C51.75945258305951,346.64235451804046,51.75945258305951,279.711731226006,60.517524644030665,279.711731226006C69.27163198247536,279.711731226006,69.27163198247536,307.14972398007535,78.02573932092004,307.14972398007535C86.58557525556773,307.14972398007535,86.58557525556773,292.85184325558083,95.14541119021541,292.85184325558083C103.8995185286601,292.85184325558083,103.8995185286601,333.6583480771042,112.65362586710478,333.6583480771042C130.16580526652064,333.6583480771042,130.16580526652064,414.7557570074009,147.6779846659365,414.7557570074009C156.1426672599489,414.7557570074009,156.1426672599489,407.0310535647131,164.6073498539613,407.0310535647131C173.361457192406,407.0310535647131,173.361457192406,427.6294881589012,182.1155645308507,427.6294881589012C190.87363659182182,427.6294881589012,190.87363659182182,398.68848967497087,199.63170865279298,398.68848967497087C208.38581599123768,398.68848967497087,208.38581599123768,434.9257821974291,217.13992332968235,434.9257821974291C225.60460592369475,434.9257821974291,225.60460592369475,410.8658859686328,234.06928851770718,410.8658859686328C242.82339585615188,410.8658859686328,242.82339585615188,445.7860563338389,251.57750319459655,445.7860563338389C260.33557525556773,445.7860563338389,260.33557525556773,415.64686630666245,269.0936473165389,415.64686630666245C277.8477546549836,415.64686630666245,277.8477546549836,409.69719607040736,286.60186199342826,409.69719607040736C295.0665445874407,409.69719607040736,295.0665445874407,420.5135809719604,303.5312271814531,420.5135809719604C312.2853345198978,420.5135809719604,312.2853345198978,431.0962487252281,321.03944185834246,431.0962487252281C329.7975139193136,431.0962487252281,329.7975139193136,439.3025898249565,338.5555859802848,439.3025898249565" stroke="#1f77b4" fill="none"/><text font-family="sans-serif" font-size="10" class="labels" x="60.517524644030665" y="279.711731226006" dx="0" dy="-4" text-anchor="middle">black</text></g><g id="hispanic"><path d="M8.563800657174152,360.3627624121607C17.028483251186564,360.3627624121607,17.028483251186564,337.8436726505322,25.493165845198977,337.8436726505322C34.247273183643664,337.8436726505322,34.247273183643664,343.47229544281413,43.001380522088354,343.47229544281413C51.75945258305951,343.47229544281413,51.75945258305951,302.4673748662908,60.517524644030665,302.4673748662908C69.27163198247536,302.4673748662908,69.27163198247536,317.60476732329596,78.02573932092004,317.60476732329596C86.58557525556773,317.60476732329596,86.58557525556773,339.8348248390291,95.14541119021541,339.8348248390291C103.8995185286601,339.8348248390291,103.8995185286601,318.1138657837382,112.65362586710478,318.1138657837382C130.16580526652064,318.1138657837382,130.16580526652064,374.71616619216553,147.6779846659365,374.71616619216553C156.1426672599489,374.71616619216553,156.1426672599489,412.06210462621823,164.6073498539613,412.06210462621823C173.361457192406,412.06210462621823,173.361457192406,384.7080788588945,182.1155645308507,384.7080788588945C190.87363659182182,384.7080788588945,190.87363659182182,412.0302117090168,199.63170865279298,412.0302117090168C208.38581599123768,412.0302117090168,208.38581599123768,411.12070619708464,217.13992332968235,411.12070619708464C225.60460592369475,411.12070619708464,225.60460592369475,405.2888847695344,234.06928851770718,405.2888847695344C242.82339585615188,405.2888847695344,242.82339585615188,431.0253035179072,251.57750319459655,431.0253035179072C260.33557525556773,431.0253035179072,260.33557525556773,412.8440072796635,269.0936473165389,412.8440072796635C277.8477546549836,412.8440072796635,277.8477546549836,423.43912226181607,286.60186199342826,423.43912226181607C295.0665445874407,423.43912226181607,295.0665445874407,429.1543522359708,303.5312271814531,429.1543522359708C312.2853345198978,429.1543522359708,312.2853345198978,433.57839851771587,321.03944185834246,433.57839851771587C329.7975139193136,433.57839851771587,329.7975139193136,416.3353242002341,338.5555859802848,416.3353242002341" stroke="#ff7f0e" fill="none"/><text font-family="sans-serif" font-size="10" class="labels" x="60.517524644030665" y="302.4673748662908" dx="0" dy="-4" text-anchor="middle">hispanic</text></g></g></g><text y="4" x="4" style="font-family: Arial, sans-serif; font-size: 12px; fill: black; font-weight: bold; dominant-baseline: hanging;">WA</text></g><g id="grid"><rect x="0" y="0" width="412.5" height="500" fill="none" stroke="#ccc"/><rect x="412.5" y="0" width="412.5" height="500" fill="none" stroke="#ccc"/></g></g><g id="legend" transform="translate(825,17)"><g transform="translate(5,0)"><g class="legendColor" transform="translate(0,0)"><g class="legendCells" transform="translate(0,15.5)"><g class="cell" transform="translate(0, 0)"><rect class="swatch" height="15" width="15" style="fill: rgb(31, 119, 180);"/><text class="label" transform="translate( 20, 12.5)" font-family="&quot;Arial&quot;, sans-serif" font-size="10px"><tspan x="0" dy="0em">black</tspan></text></g><g class="cell" transform="translate(0, 20.5)"><rect class="swatch" height="15" width="15" style="fill: rgb(255, 127, 14);"/><text class="label" transform="translate( 20, 12.5)" font-family="&quot;Arial&quot;, sans-serif" font-size="10px"><tspan x="0" dy="0em">hispanic</tspan></text></g><g class="cell" transform="translate(0, 41)"><rect class="swatch" height="15" width="15" style="fill: rgb(44, 160, 44);"/><text class="label" transform="translate( 20, 12.5)" font-family="&quot;Arial&quot;, sans-serif" font-size="10px"><tspan x="0" dy="0em">white</tspan></text></g></g><text class="legendTitle" font-family="&quot;Arial&quot;, sans-serif" font-size="12px" font-weight="bold"><tspan x="0" dy="0em">driver_race</tspan></text></g></g></g></svg>