<svg xmlns="http://www.w3.org/2000/svg" width="900" height="600"><rect width="900" height="600" x="0" y="0" fill="#FFFFFF" id="backgorund"/><g id="viz"><clipPath id="serieClipPath"><rect x="-50" y="-10" width="450" height="600"/></clipPath><g id="CO" transform="translate(0,0)"><g transform="translate(50,10)" clip-path="url(#serieClipPath)"><g id="axis"><g transform="translate(0,570)" fill="none" font-size="10" font-family="sans-serif" text-anchor="middle"><path class="domain" stroke="currentColor" d="M0,6V0H385V6"/><g class="tick" opacity="1" transform="translate(0,0)"><line stroke="currentColor" y2="6"/><text fill="currentColor" y="9" dy="0.71em">2011</text></g><g class="tick" opacity="1" transform="translate(76.95783132530121,0)"><line stroke="currentColor" y2="6"/><text fill="currentColor" y="9" dy="0.71em">2012</text></g><g class="tick" opacity="1" transform="translate(154.1265060240964,0)"><line stroke="currentColor" y2="6"/><text fill="currentColor" y="9" dy="0.71em">2013</text></g><g class="tick" opacity="1" transform="translate(231.08433734939757,0)"><line stroke="currentColor" y2="6"/><text fill="currentColor" y="9" dy="0.71em">2014</text></g><g class="tick" opacity="1" transform="translate(308.0421686746988,0)"><line stroke="currentColor" y2="6"/><text fill="currentColor" y="9" dy="0.71em">2015</text></g><g class="tick" opacity="1" transform="translate(385,0)"><line stroke="currentColor" y2="6"/><text fill="currentColor" y="9" dy="0.71em">2016</text></g><text x="385" dy="-5" text-anchor="end" style="font-family: Arial, sans-serif; font-size: 12px; fill: rgb(123, 123, 123); font-weight: bold;">quarter</text></g><g transform="translate(0,0)" fill="none" font-size="10" font-family="sans-serif" text-anchor="end"><path class="domain" stroke="currentColor" d="M0,570V0"/><g class="tick" opacity="1" transform="translate(0,570)"><line stroke="currentColor" x2="-6"/><text fill="currentColor" x="-9" dy="0.32em">0.000</text></g><g class="tick" opacity="1" transform="translate(0,529.2857142857143)"><line stroke="currentColor" x2="-6"/><text fill="currentColor" x="-9" dy="0.32em">0.001</text></g><g class="tick" opacity="1" transform="translate(0,488.5714285714286)"><line stroke="currentColor" x2="-6"/><text fill="currentColor" x="-9" dy="0.32em">0.002</text></g><g class="tick" opacity="1" transform="translate(0,447.85714285714283)"><line stroke="currentColor" x2="-6"/><text fill="currentColor" x="-9" dy="0.32em">0.003</text></g><g class="tick" opacity="1" transform="translate(0,407.14285714285717)"><line stroke="currentColor" x2="-6"/><text fill="currentColor" x="-9" dy="0.32em">0.004</text></g><g class="tick" opacity="1" transform="translate(0,366.4285714285714)"><line stroke="currentColor" x2="-6"/><text fill="currentColor" x="-9" dy="0.32em">0.005</text></g><g class="tick" opacity="1" transform="translate(0,325.7142857142857)"><line stroke="currentColor" x2="-6"/><text fill="currentColor" x="-9" dy="0.32em">0.006</text></g><g class="tick" opacity="1" transform="translate(0,285)"><line stroke="currentColor" x2="-6"/><text fill="currentColor" x="-9" dy="0.32em">0.007</text></g><g class="tick" opacity="1" transform="translate(0,244.2857142857143)"><line stroke="currentColor" x2="-6"/><text fill="currentColor" x="-9" dy="0.32em">0.008</text></g><g class="tick" opacity="1" transform="translate(0,203.5714285714286)"><line stroke="currentColor" x2="-6"/><text fill="currentColor" x="-9" dy="0.32em">0.009</text></g><g class="tick" opacity="1" transform="translate(0,162.85714285714286)"><line stroke="currentColor" x2="-6"/><text fill="currentColor" x="-9" dy="0.32em">0.010</text></g><g class="tick" opacity="1" transform="translate(0,122.14285714285715)"><line stroke="currentColor" x2="-6"/><text fill="currentColor" x="-9" dy="0.32em">0.011</text></g><g class="tick" opacity="1" transform="translate(0,81.42857142857146)"><line stroke="currentColor" x2="-6"/><text fill="currentColor" x="-9" dy="0.32em">0.012</text></g><g class="tick" opacity="1" transform="translate(0,40.71428571428576)"><line stroke="currentColor" x2="-6"/><text fill="currentColor" x="-9" dy="0.32em">0.013</text></g><g class="tick" opacity="1" transform="translate(0,0)"><line stroke="currentColor" x2="-6"/><text fill="currentColor" x="-9" dy="0.32em">0.014</text></g><text x="4" text-anchor="start" dominant-baseline="hanging" style="font-family: Arial, sans-serif; font-size: 12px; fill: rgb(123, 123, 123); font-weight: bold;">search_rate</text></g></g><g id="viz"><g id="white"><path d="M9.487951807228916,385.1635088269314C18.86608935742972,385.1635088269314,18.86608935742972,406.5176086989352,28.24422690763052,406.5176086989352C37.943022088353416,406.5176086989352,37.943022088353416,424.9712723593373,47.641817269076306,424.9712723593373C57.34500502008032,424.9712723593373,57.34500502008032,415.8527818472983,67.04819277108433,415.8527818472983C76.74698795180723,415.8527818472983,76.74698795180723,387.0667148989136,86.44578313253011,387.0667148989136C95.92934236947791,387.0667148989136,95.92934236947791,385.25899709554204,105.4129016064257,385.25899709554204C115.11169678714859,385.25899709554204,115.11169678714859,434.9884062066287,124.81049196787149,434.9884062066287C144.2124748995984,434.9884062066287,144.2124748995984,474.05761858252527,163.6144578313253,474.05761858252527C172.9925953815261,474.05761858252527,172.9925953815261,491.30847368956654,182.3707329317269,491.30847368956654C192.0695281124498,491.30847368956654,192.0695281124498,504.6303738886875,201.7683232931727,504.6303738886875C211.4715110441767,504.6303738886875,211.4715110441767,513.6961314471542,221.17469879518072,513.6961314471542C230.8734939759036,513.6961314471542,230.8734939759036,514.9294814790195,240.57228915662648,514.9294814790195C249.9504267068273,514.9294814790195,249.9504267068273,528.25712708386,259.3285642570281,528.25712708386C269.027359437751,528.25712708386,269.027359437751,520.0597076919107,278.72615461847386,520.0597076919107C288.4293423694779,520.0597076919107,288.4293423694779,513.3819741696174,298.13253012048193,513.3819741696174C307.83132530120486,513.3819741696174,307.83132530120486,502.17163281378794,317.5301204819277,502.17163281378794C326.9082580321285,502.17163281378794,326.9082580321285,517.252177775586,336.2863955823293,517.252177775586C345.9851907630522,517.252177775586,345.9851907630522,513.9270336934845,355.6839859437751,513.9270336934845C365.3871736947791,513.9270336934845,365.3871736947791,507.25928824926706,375.0903614457831,507.25928824926706" stroke="#2ca02c" fill="none"/><text font-family="sans-serif" font-size="10" class="labels" x="9.487951807228916" y="385.1635088269314" dx="0" dy="-4" text-anchor="middle">white</text></g><g id="black"><path d="M9.487951807228916,88.60572247530388C18.86608935742972,88.60572247530388,18.86608935742972,139.87624509508245,28.24422690763052,139.87624509508245C37.943022088353416,139.87624509508245,37.943022088353416,252.3512308586964,47.641817269076306,252.3512308586964C57.34500502008032,252.3512308586964,57.34500502008032,18.357438571967975,67.04819277108433,18.357438571967975C76.74698795180723,18.357438571967975,76.74698795180723,122.25093450349542,86.44578313253011,122.25093450349542C95.92934236947791,122.25093450349542,95.92934236947791,79.9584467688791,105.4129016064257,79.9584467688791C115.11169678714859,79.9584467688791,115.11169678714859,132.36883861391598,124.81049196787149,132.36883861391598C144.2124748995984,132.36883861391598,144.2124748995984,268.4126984126988,163.6144578313253,268.4126984126988C172.9925953815261,268.4126984126988,172.9925953815261,318.96779521057243,182.3707329317269,318.96779521057243C192.0695281124498,318.96779521057243,192.0695281124498,384.61095821866695,201.7683232931727,384.61095821866695C211.4715110441767,384.61095821866695,211.4715110441767,373.7865748709137,221.17469879518072,373.7865748709137C230.8734939759036,373.7865748709137,230.8734939759036,422.10938716206044,240.57228915662648,422.10938716206044C249.9504267068273,422.10938716206044,249.9504267068273,426.9146508443638,259.3285642570281,426.9146508443638C269.027359437751,426.9146508443638,269.027359437751,425.9805952802098,278.72615461847386,425.9805952802098C288.4293423694779,425.9805952802098,288.4293423694779,494.7425402693438,298.13253012048193,494.7425402693438C307.83132530120486,494.7425402693438,307.83132530120486,314.7850821744664,317.5301204819277,314.7850821744664C326.9082580321285,314.7850821744664,326.9082580321285,364.9246857910423,336.2863955823293,364.9246857910423C345.9851907630522,364.9246857910423,345.9851907630522,411.9374220086004,355.6839859437751,411.9374220086004C365.3871736947791,411.9374220086004,365.3871736947791,360.59515062454324,375.0903614457831,360.59515062454324" stroke="#1f77b4" fill="none"/><text font-family="sans-serif" font-size="10" class="labels" x="67.04819277108433" y="18.357438571967975" dx="0" dy="-4" text-anchor="middle">black</text></g><g id="hispanic"><path d="M9.487951807228916,84.63332127984876C18.86608935742972,84.63332127984876,18.86608935742972,231.45427636703658,28.24422690763052,231.45427636703658C37.943022088353416,231.45427636703658,37.943022088353416,305.47488879079305,47.641817269076306,305.47488879079305C57.34500502008032,305.47488879079305,57.34500502008032,251.12698977775565,67.04819277108433,251.12698977775565C76.74698795180723,251.12698977775565,76.74698795180723,189.52894059311657,86.44578313253011,189.52894059311657C95.92934236947791,189.52894059311657,95.92934236947791,268.79247149828274,105.4129016064257,268.79247149828274C115.11169678714859,268.79247149828274,115.11169678714859,185.16400788672172,124.81049196787149,185.16400788672172C144.2124748995984,185.16400788672172,144.2124748995984,309.5756345996239,163.6144578313253,309.5756345996239C172.9925953815261,309.5756345996239,172.9925953815261,387.1617401408981,182.3707329317269,387.1617401408981C192.0695281124498,387.1617401408981,192.0695281124498,373.69528965367437,201.7683232931727,373.69528965367437C211.4715110441767,373.69528965367437,211.4715110441767,406.00583090379365,221.17469879518072,406.00583090379365C230.8734939759036,406.00583090379365,230.8734939759036,440.2137872466154,240.57228915662648,440.2137872466154C249.9504267068273,440.2137872466154,249.9504267068273,467.92156077828474,259.3285642570281,467.92156077828474C269.027359437751,467.92156077828474,269.027359437751,444.0128316945263,278.72615461847386,444.0128316945263C288.4293423694779,444.0128316945263,288.4293423694779,460.3533266316728,298.13253012048193,460.3533266316728C307.83132530120486,460.3533266316728,307.83132530120486,354.5804988662169,317.5301204819277,354.5804988662169C326.9082580321285,354.5804988662169,326.9082580321285,425.4894179894213,336.2863955823293,425.4894179894213C345.9851907630522,425.4894179894213,345.9851907630522,402.1648018311347,355.6839859437751,402.1648018311347C365.3871736947791,402.1648018311347,365.3871736947791,348.557467008222,375.0903614457831,348.557467008222" stroke="#ff7f0e" fill="none"/><text font-family="sans-serif" font-size="10" class="labels" x="9.487951807228916" y="84.63332127984876" dx="0" dy="-4" text-anchor="middle">hispanic</text></g></g></g><text y="4" x="4" style="font-family: Arial, sans-serif; font-size: 12px; fill: black; font-weight: bold; dominant-baseline: hanging;">CO</text></g><g id="WA" transform="translate(450,0)"><g transform="translate(50,10)" clip-path="url(#serieClipPath)"><g id="axis"><g transform="translate(0,570)" fill="none" font-size="10" font-family="sans-serif" text-anchor="middle"><path class="domain" stroke="currentColor" d="M0,6V0H385V6"/><g class="tick" opacity="1" transform="translate(0,0)"><line stroke="currentColor" y2="6"/><text fill="currentColor" y="9" dy="0.71em">2011</text></g><g class="tick" opacity="1" transform="translate(76.95783132530121,0)"><line stroke="currentColor" y2="6"/><text fill="currentColor" y="9" dy="0.71em">2012</text></g><g class="tick" opacity="1" transform="translate(154.1265060240964,0)"><line stroke="currentColor" y2="6"/><text fill="currentColor" y="9" dy="0.71em">2013</text></g><g class="tick" opacity="1" transform="translate(231.08433734939757,0)"><line stroke="currentColor" y2="6"/><text fill="currentColor" y="9" dy="0.71em">2014</text></g><g class="tick" opacity="1" transform="translate(308.0421686746988,0)"><line stroke="currentColor" y2="6"/><text fill="currentColor" y="9" dy="0.71em">2015</text></g><g class="tick" opacity="1" transform="translate(385,0)"><line stroke="currentColor" y2="6"/><text fill="currentColor" y="9" dy="0.71em">2016</text></g><text x="385" dy="-5" text-anchor="end" display="none" style="font-family: Arial, sans-serif; font-size: 12px; fill: rgb(123, 123, 123); font-weight: bold;">quarter</text></g><g transform="translate(0,0)" fill="none" font-size="10" font-family="sans-serif" text-anchor="end"><path class="domain" stroke="currentColor" d="M0,570V0"/><g class="tick" opacity="1" transform="translate(0,570)"><line stroke="currentColor" x2="-6"/><text fill="currentColor" x="-9" dy="0.32em">0.000</text></g><g class="tick" opacity="1" transform="translate(0,529.2857142857143)"><line stroke="currentColor" x2="-6"/><text fill="currentColor" x="-9" dy="0.32em">0.001</text></g><g class="tick" opacity="1" transform="translate(0,488.5714285714286)"><line stroke="currentColor" x2="-6"/><text fill="currentColor" x="-9" dy="0.32em">0.002</text></g><g class="tick" opacity="1" transform="translate(0,447.85714285714283)"><line stroke="currentColor" x2="-6"/><text fill="currentColor" x="-9" dy="0.32em">0.003</text></g><g class="tick" opacity="1" transform="translate(0,407.14285714285717)"><line stroke="currentColor" x2="-6"/><text fill="currentColor" x="-9" dy="0.32em">0.004</text></g><g class="tick" opacity="1" transform="translate(0,366.4285714285714)"><line stroke="currentColor" x2="-6"/><text fill="currentColor" x="-9" dy="0.32em">0.005</text></g><g class="tick" opacity="1" transform="translate(0,325.7142857142857)"><line stroke="currentColor" x2="-6"/><text fill="currentColor" x="-9" dy="0.32em">0.006</text></g><g class="tick" opacity="1" transform="translate(0,285)"><line stroke="currentColor" x2="-6"/><text fill="currentColor" x="-9" dy="0.32em">0.007</text></g><g class="tick" opacity="1" transform="translate(0,244.2857142857143)"><line stroke="currentColor" x2="-6"/><text fill="currentColor" x="-9" dy="0.32em">0.008</text></g><g class="tick" opacity="1" transform="translate(0,203.5714285714286)"><line stroke="currentColor" x2="-6"/><text fill="currentColor" x="-9" dy="0.32em">0.009</text></g><g class="tick" opacity="1" transform="translate(0,162.85714285714286)"><line stroke="currentColor" x2="-6"/><text fill="currentColor" x="-9" dy="0.32em">0.010</text></g><g class="tick" opacity="1" transform="translate(0,122.14285714285715)"><line stroke="currentColor" x2="-6"/><text fill="currentColor" x="-9" dy="0.32em">0.011</text></g><g class="tick" opacity="1" transform="translate(0,81.42857142857146)"><line stroke="currentColor" x2="-6"/><text fill="currentColor" x="-9" dy="0.32em">0.012</text></g><g class="tick" opacity="1" transform="translate(0,40.71428571428576)"><line stroke="currentColor" x2="-6"/><text fill="currentColor" x="-9" dy="0.32em">0.013</text></g><g class="tick" opacity="1" transform="translate(0,0)"><line stroke="currentColor" x2="-6"/><text fill="currentColor" x="-9" dy="0.32em">0.014</text></g><text x="4" text-anchor="start" dominant-baseline="hanging" display="none" style="font-family: Arial, sans-serif; font-size: 12px; fill: rgb(123, 123, 123); font-weight: bold;">search_rate</text></g></g><g id="viz"><g id="white"><path d="M9.487951807228916,486.3883698712387C18.86608935742972,486.3883698712387,18.86608935742972,477.057066516459,28.24422690763052,477.057066516459C37.943022088353416,477.057066516459,37.943022088353416,489.3922029907039,47.641817269076306,489.3922029907039C57.34500502008032,489.3922029907039,57.34500502008032,460.26713096633785,67.04819277108433,460.26713096633785C76.74698795180723,460.26713096633785,76.74698795180723,456.4308529516166,86.44578313253011,456.4308529516166C95.92934236947791,456.4308529516166,95.92934236947791,462.77445706853746,105.4129016064257,462.77445706853746C115.11169678714859,462.77445706853746,115.11169678714859,472.09150675390947,124.81049196787149,472.09150675390947C144.2124748995984,472.09150675390947,144.2124748995984,531.2795877494849,163.6144578313253,531.2795877494849C172.9925953815261,531.2795877494849,172.9925953815261,534.4688776059145,182.3707329317269,534.4688776059145C192.0695281124498,534.4688776059145,192.0695281124498,529.8209565431924,201.7683232931727,529.8209565431924C211.4715110441767,529.8209565431924,211.4715110441767,536.964182218616,221.17469879518072,536.964182218616C230.8734939759036,536.964182218616,230.8734939759036,525.3881965592736,240.57228915662648,525.3881965592736C249.9504267068273,525.3881965592736,249.9504267068273,537.1163703802997,259.3285642570281,537.1163703802997C269.027359437751,537.1163703802997,269.027359437751,545.6516994204361,278.72615461847386,545.6516994204361C288.4293423694779,545.6516994204361,288.4293423694779,545.8463275559326,298.13253012048193,545.8463275559326C307.83132530120486,545.8463275559326,307.83132530120486,540.5977427319683,317.5301204819277,540.5977427319683C326.9082580321285,540.5977427319683,326.9082580321285,541.2249151072432,336.2863955823293,541.2249151072432C345.9851907630522,541.2249151072432,345.9851907630522,551.6072796451089,355.6839859437751,551.6072796451089C365.3871736947791,551.6072796451089,365.3871736947791,539.9817994910599,375.0903614457831,539.9817994910599" stroke="#2ca02c" fill="none"/><text font-family="sans-serif" font-size="10" class="labels" x="86.44578313253011" y="456.4308529516166" dx="0" dy="-4" text-anchor="middle">white</text></g><g id="black"><path d="M9.487951807228916,382.7804100800908C18.86608935742972,382.7804100800908,18.86608935742972,401.6432017327965,28.24422690763052,401.6432017327965C37.943022088353416,401.6432017327965,37.943022088353416,426.7519267284731,47.641817269076306,426.7519267284731C57.34500502008032,426.7519267284731,57.34500502008032,344.35353520264243,67.04819277108433,344.35353520264243C76.74698795180723,344.35353520264243,76.74698795180723,378.1324895651036,86.44578313253011,378.1324895651036C95.92934236947791,378.1324895651036,95.92934236947791,360.530346988512,105.4129016064257,360.530346988512C115.11169678714859,360.530346988512,115.11169678714859,410.7672967687892,124.81049196787149,410.7672967687892C144.2124748995984,410.7672967687892,144.2124748995984,510.606439512351,163.6144578313253,510.606439512351C172.9925953815261,510.606439512351,172.9925953815261,501.0965454252407,182.3707329317269,501.0965454252407C192.0695281124498,501.0965454252407,192.0695281124498,526.4553093964875,201.7683232931727,526.4553093964875C211.4715110441767,526.4553093964875,211.4715110441767,490.8260024076315,221.17469879518072,490.8260024076315C230.8734939759036,490.8260024076315,230.8734939759036,535.4377880184333,240.57228915662648,535.4377880184333C249.9504267068273,535.4377880184333,249.9504267068273,505.81761339550906,259.3285642570281,505.81761339550906C269.027359437751,505.81761339550906,269.027359437751,548.8078879271884,278.72615461847386,548.8078879271884C288.4293423694779,548.8078879271884,288.4293423694779,511.70348551792137,298.13253012048193,511.70348551792137C307.83132530120486,511.70348551792137,307.83132530120486,504.37883749488594,317.5301204819277,504.37883749488594C326.9082580321285,504.37883749488594,326.9082580321285,517.6949053002536,336.2863955823293,517.6949053002536C345.9851907630522,517.6949053002536,345.9851907630522,530.7232435710151,355.6839859437751,530.7232435710151C365.3871736947791,530.7232435710151,365.3871736947791,540.826082505886,375.0903614457831,540.826082505886" stroke="#1f77b4" fill="none"/><text font-family="sans-serif" font-size="10" class="labels" x="67.04819277108433" y="344.35353520264243" dx="0" dy="-4" text-anchor="middle">black</text></g><g id="hispanic"><path d="M9.487951807228916,443.64314163052177C18.86608935742972,443.64314163052177,18.86608935742972,415.9198561788409,28.24422690763052,415.9198561788409C37.943022088353416,415.9198561788409,37.943022088353416,422.8492622082161,47.641817269076306,422.8492622082161C57.34500502008032,422.8492622082161,57.34500502008032,372.36804249197786,67.04819277108433,372.36804249197786C76.74698795180723,372.36804249197786,76.74698795180723,391.0037092317034,86.44578313253011,391.0037092317034C95.92934236947791,391.0037092317034,95.92934236947791,418.37116664848077,105.4129016064257,418.37116664848077C115.11169678714859,418.37116664848077,115.11169678714859,391.6304611160492,124.81049196787149,391.6304611160492C144.2124748995984,391.6304611160492,144.2124748995984,461.31363872469626,163.6144578313253,461.31363872469626C172.9925953815261,461.31363872469626,172.9925953815261,507.2902799934004,182.3707329317269,507.2902799934004C192.0695281124498,507.2902799934004,192.0695281124498,473.61469751526965,201.7683232931727,473.61469751526965C211.4715110441767,473.61469751526965,211.4715110441767,507.2510165748154,221.17469879518072,507.2510165748154C230.8734939759036,507.2510165748154,230.8734939759036,506.13132296401346,240.57228915662648,506.13132296401346C249.9504267068273,506.13132296401346,249.9504267068273,498.9517587875477,259.3285642570281,498.9517587875477C269.027359437751,498.9517587875477,269.027359437751,530.6359028190218,278.72615461847386,530.6359028190218C288.4293423694779,530.6359028190218,288.4293423694779,508.2528815321991,298.13253012048193,508.2528815321991C307.83132530120486,508.2528815321991,307.83132530120486,521.2965436052596,317.5301204819277,521.2965436052596C326.9082580321285,521.2965436052596,326.9082580321285,528.3325718671779,336.2863955823293,528.3325718671779C345.9851907630522,528.3325718671779,345.9851907630522,533.7790219332571,355.6839859437751,533.7790219332571C365.3871736947791,533.7790219332571,365.3871736947791,512.5510470715625,375.0903614457831,512.5510470715625" stroke="#ff7f0e" fill="none"/><text font-family="sans-serif" font-size="10" class="labels" x="67.04819277108433" y="372.36804249197786" dx="0" dy="-4" text-anchor="middle">hispanic</text></g></g></g><text y="4" x="4" style="font-family: Arial, sans-serif; font-size: 12px; fill: black; font-weight: bold; dominant-baseline: hanging;">WA</text></g><g id="grid"><rect x="0" y="0" width="450" height="600" fill="none" stroke="#ccc"/><rect x="450" y="0" width="450" height="600" fill="none" stroke="#ccc"/></g></g></svg>