<?xml version="1.0" encoding="utf-8" standalone="no"?>
<!DOCTYPE svg PUBLIC "-//W3C//DTD SVG 1.1//EN"
  "http://www.w3.org/Graphics/SVG/1.1/DTD/svg11.dtd">
<svg height="309.330625pt" version="1.1" viewBox="0 0 509.889094 309.330625" width="509.889094pt" xmlns="http://www.w3.org/2000/svg" xmlns:xlink="http://www.w3.org/1999/xlink">
 <metadata>
  <rdf:RDF xmlns:cc="http://creativecommons.org/ns#" xmlns:dc="http://purl.org/dc/elements/1.1/" xmlns:rdf="http://www.w3.org/1999/02/22-rdf-syntax-ns#">
   <cc:Work>
    <dc:type rdf:resource="http://purl.org/dc/dcmitype/StillImage"/>
    <dc:date>2022-03-12T13:20:59.395351</dc:date>
    <dc:format>image/svg+xml</dc:format>
    <dc:creator>
     <cc:Agent>
      <dc:title>Matplotlib v3.4.3, https://matplotlib.org/</dc:title>
     </cc:Agent>
    </dc:creator>
   </cc:Work>
  </rdf:RDF>
 </metadata>
 <defs>
  <style type="text/css">*{stroke-linecap:butt;stroke-linejoin:round;}</style>
 </defs>
 <g id="figure_1">
  <g id="patch_1">
   <path d="M 0 309.330625 
L 509.889094 309.330625 
L 509.889094 0 
L 0 0 
z
" style="fill:#ffffff;stroke:#ffffff;stroke-linejoin:miter;"/>
  </g>
  <g id="axes_1">
   <g id="patch_2">
    <path d="M 38.699875 273.312 
L 395.819875 273.312 
L 395.819875 7.2 
L 38.699875 7.2 
z
" style="fill:#ebebeb;"/>
   </g>
   <g id="matplotlib.axis_1">
    <g id="xtick_1">
     <g id="line2d_1">
      <path clip-path="url(#pf3adf2f52d)" d="M 54.932602 273.312 
L 54.932602 7.2 
" style="fill:none;stroke:#ffffff;"/>
     </g>
     <g id="line2d_2">
      <path d="M 54.932602 273.312 
" style="fill:none;stroke:#333333;stroke-width:1.5;"/>
      <defs>
       <path d="M 0 0 
L 0 2.75 
" id="m1d44cbe8ff" style="stroke:#000000;"/>
      </defs>
      <g>
       <use style="fill:#333333;stroke:#000000;" x="54.932602" xlink:href="#m1d44cbe8ff" y="273.312"/>
      </g>
     </g>
     <g id="text_1">
      <text style="fill:#4d4d4d;font-family:DejaVu Sans;font-size:8.8px;font-stretch:normal;font-style:normal;font-weight:normal;text-anchor:middle;" transform="rotate(-0, 54.932602, 284.948625)" x="54.932602" y="284.948625">0</text>
     </g>
    </g>
    <g id="xtick_2">
     <g id="line2d_3">
      <path clip-path="url(#pf3adf2f52d)" d="M 134.995376 273.312 
L 134.995376 7.2 
" style="fill:none;stroke:#ffffff;"/>
     </g>
     <g id="line2d_4">
      <path d="M 134.995376 273.312 
" style="fill:none;stroke:#333333;stroke-width:1.5;"/>
      <g>
       <use style="fill:#333333;stroke:#000000;" x="134.995376" xlink:href="#m1d44cbe8ff" y="273.312"/>
      </g>
     </g>
     <g id="text_2">
      <text style="fill:#4d4d4d;font-family:DejaVu Sans;font-size:8.8px;font-stretch:normal;font-style:normal;font-weight:normal;text-anchor:middle;" transform="rotate(-0, 134.995376, 284.948625)" x="134.995376" y="284.948625">2000</text>
     </g>
    </g>
    <g id="xtick_3">
     <g id="line2d_5">
      <path clip-path="url(#pf3adf2f52d)" d="M 215.058149 273.312 
L 215.058149 7.2 
" style="fill:none;stroke:#ffffff;"/>
     </g>
     <g id="line2d_6">
      <path d="M 215.058149 273.312 
" style="fill:none;stroke:#333333;stroke-width:1.5;"/>
      <g>
       <use style="fill:#333333;stroke:#000000;" x="215.058149" xlink:href="#m1d44cbe8ff" y="273.312"/>
      </g>
     </g>
     <g id="text_3">
      <text style="fill:#4d4d4d;font-family:DejaVu Sans;font-size:8.8px;font-stretch:normal;font-style:normal;font-weight:normal;text-anchor:middle;" transform="rotate(-0, 215.058149, 284.948625)" x="215.058149" y="284.948625">4000</text>
     </g>
    </g>
    <g id="xtick_4">
     <g id="line2d_7">
      <path clip-path="url(#pf3adf2f52d)" d="M 295.120922 273.312 
L 295.120922 7.2 
" style="fill:none;stroke:#ffffff;"/>
     </g>
     <g id="line2d_8">
      <path d="M 295.120922 273.312 
" style="fill:none;stroke:#333333;stroke-width:1.5;"/>
      <g>
       <use style="fill:#333333;stroke:#000000;" x="295.120922" xlink:href="#m1d44cbe8ff" y="273.312"/>
      </g>
     </g>
     <g id="text_4">
      <text style="fill:#4d4d4d;font-family:DejaVu Sans;font-size:8.8px;font-stretch:normal;font-style:normal;font-weight:normal;text-anchor:middle;" transform="rotate(-0, 295.120922, 284.948625)" x="295.120922" y="284.948625">6000</text>
     </g>
    </g>
    <g id="xtick_5">
     <g id="line2d_9">
      <path clip-path="url(#pf3adf2f52d)" d="M 375.183695 273.312 
L 375.183695 7.2 
" style="fill:none;stroke:#ffffff;"/>
     </g>
     <g id="line2d_10">
      <path d="M 375.183695 273.312 
" style="fill:none;stroke:#333333;stroke-width:1.5;"/>
      <g>
       <use style="fill:#333333;stroke:#000000;" x="375.183695" xlink:href="#m1d44cbe8ff" y="273.312"/>
      </g>
     </g>
     <g id="text_5">
      <text style="fill:#4d4d4d;font-family:DejaVu Sans;font-size:8.8px;font-stretch:normal;font-style:normal;font-weight:normal;text-anchor:middle;" transform="rotate(-0, 375.183695, 284.948625)" x="375.183695" y="284.948625">8000</text>
     </g>
    </g>
    <g id="xtick_6">
     <g id="line2d_11">
      <path clip-path="url(#pf3adf2f52d)" d="M 94.963989 273.312 
L 94.963989 7.2 
" style="fill:none;stroke:#ffffff;stroke-width:0.5;"/>
     </g>
    </g>
    <g id="xtick_7">
     <g id="line2d_12">
      <path clip-path="url(#pf3adf2f52d)" d="M 175.026762 273.312 
L 175.026762 7.2 
" style="fill:none;stroke:#ffffff;stroke-width:0.5;"/>
     </g>
    </g>
    <g id="xtick_8">
     <g id="line2d_13">
      <path clip-path="url(#pf3adf2f52d)" d="M 255.089535 273.312 
L 255.089535 7.2 
" style="fill:none;stroke:#ffffff;stroke-width:0.5;"/>
     </g>
    </g>
    <g id="xtick_9">
     <g id="line2d_14">
      <path clip-path="url(#pf3adf2f52d)" d="M 335.152309 273.312 
L 335.152309 7.2 
" style="fill:none;stroke:#ffffff;stroke-width:0.5;"/>
     </g>
    </g>
    <g id="text_6">
     <text style="font-family:DejaVu Sans;font-size:11px;font-stretch:normal;font-style:normal;font-weight:normal;text-anchor:middle;" transform="rotate(-0, 211.499875, 299.537031)" x="211.499875" y="299.537031">total_students</text>
    </g>
   </g>
   <g id="matplotlib.axis_2">
    <g id="ytick_1">
     <g id="line2d_15">
      <path clip-path="url(#pf3adf2f52d)" d="M 38.699875 266.429793 
L 395.819875 266.429793 
" style="fill:none;stroke:#ffffff;"/>
     </g>
     <g id="line2d_16">
      <path d="M 38.699875 266.429793 
" style="fill:none;stroke:#333333;stroke-width:1.5;"/>
      <defs>
       <path d="M 0 0 
L -2.75 0 
" id="m43caf841c7" style="stroke:#000000;"/>
      </defs>
      <g>
       <use style="fill:#333333;stroke:#000000;" x="38.699875" xlink:href="#m43caf841c7" y="266.429793"/>
      </g>
     </g>
     <g id="text_7">
      <text style="fill:#4d4d4d;font-family:DejaVu Sans;font-size:8.8px;font-stretch:normal;font-style:normal;font-weight:normal;text-anchor:end;" transform="rotate(-0, 33.749875, 268.858043)" x="33.749875" y="268.858043">10</text>
     </g>
    </g>
    <g id="ytick_2">
     <g id="line2d_17">
      <path clip-path="url(#pf3adf2f52d)" d="M 38.699875 254.959448 
L 395.819875 254.959448 
" style="fill:none;stroke:#ffffff;"/>
     </g>
     <g id="line2d_18">
      <path d="M 38.699875 254.959448 
" style="fill:none;stroke:#333333;stroke-width:1.5;"/>
      <g>
       <use style="fill:#333333;stroke:#000000;" x="38.699875" xlink:href="#m43caf841c7" y="254.959448"/>
      </g>
     </g>
     <g id="text_8">
      <text style="fill:#4d4d4d;font-family:DejaVu Sans;font-size:8.8px;font-stretch:normal;font-style:normal;font-weight:normal;text-anchor:end;" transform="rotate(-0, 33.749875, 257.387698)" x="33.749875" y="257.387698">11</text>
     </g>
    </g>
    <g id="ytick_3">
     <g id="line2d_19">
      <path clip-path="url(#pf3adf2f52d)" d="M 38.699875 243.489103 
L 395.819875 243.489103 
" style="fill:none;stroke:#ffffff;"/>
     </g>
     <g id="line2d_20">
      <path d="M 38.699875 243.489103 
" style="fill:none;stroke:#333333;stroke-width:1.5;"/>
      <g>
       <use style="fill:#333333;stroke:#000000;" x="38.699875" xlink:href="#m43caf841c7" y="243.489103"/>
      </g>
     </g>
     <g id="text_9">
      <text style="fill:#4d4d4d;font-family:DejaVu Sans;font-size:8.8px;font-stretch:normal;font-style:normal;font-weight:normal;text-anchor:end;" transform="rotate(-0, 33.749875, 245.917353)" x="33.749875" y="245.917353">12</text>
     </g>
    </g>
    <g id="ytick_4">
     <g id="line2d_21">
      <path clip-path="url(#pf3adf2f52d)" d="M 38.699875 232.018759 
L 395.819875 232.018759 
" style="fill:none;stroke:#ffffff;"/>
     </g>
     <g id="line2d_22">
      <path d="M 38.699875 232.018759 
" style="fill:none;stroke:#333333;stroke-width:1.5;"/>
      <g>
       <use style="fill:#333333;stroke:#000000;" x="38.699875" xlink:href="#m43caf841c7" y="232.018759"/>
      </g>
     </g>
     <g id="text_10">
      <text style="fill:#4d4d4d;font-family:DejaVu Sans;font-size:8.8px;font-stretch:normal;font-style:normal;font-weight:normal;text-anchor:end;" transform="rotate(-0, 33.749875, 234.447009)" x="33.749875" y="234.447009">13</text>
     </g>
    </g>
    <g id="ytick_5">
     <g id="line2d_23">
      <path clip-path="url(#pf3adf2f52d)" d="M 38.699875 220.548414 
L 395.819875 220.548414 
" style="fill:none;stroke:#ffffff;"/>
     </g>
     <g id="line2d_24">
      <path d="M 38.699875 220.548414 
" style="fill:none;stroke:#333333;stroke-width:1.5;"/>
      <g>
       <use style="fill:#333333;stroke:#000000;" x="38.699875" xlink:href="#m43caf841c7" y="220.548414"/>
      </g>
     </g>
     <g id="text_11">
      <text style="fill:#4d4d4d;font-family:DejaVu Sans;font-size:8.8px;font-stretch:normal;font-style:normal;font-weight:normal;text-anchor:end;" transform="rotate(-0, 33.749875, 222.976664)" x="33.749875" y="222.976664">14</text>
     </g>
    </g>
    <g id="ytick_6">
     <g id="line2d_25">
      <path clip-path="url(#pf3adf2f52d)" d="M 38.699875 209.078069 
L 395.819875 209.078069 
" style="fill:none;stroke:#ffffff;"/>
     </g>
     <g id="line2d_26">
      <path d="M 38.699875 209.078069 
" style="fill:none;stroke:#333333;stroke-width:1.5;"/>
      <g>
       <use style="fill:#333333;stroke:#000000;" x="38.699875" xlink:href="#m43caf841c7" y="209.078069"/>
      </g>
     </g>
     <g id="text_12">
      <text style="fill:#4d4d4d;font-family:DejaVu Sans;font-size:8.8px;font-stretch:normal;font-style:normal;font-weight:normal;text-anchor:end;" transform="rotate(-0, 33.749875, 211.506319)" x="33.749875" y="211.506319">16</text>
     </g>
    </g>
    <g id="ytick_7">
     <g id="line2d_27">
      <path clip-path="url(#pf3adf2f52d)" d="M 38.699875 197.607724 
L 395.819875 197.607724 
" style="fill:none;stroke:#ffffff;"/>
     </g>
     <g id="line2d_28">
      <path d="M 38.699875 197.607724 
" style="fill:none;stroke:#333333;stroke-width:1.5;"/>
      <g>
       <use style="fill:#333333;stroke:#000000;" x="38.699875" xlink:href="#m43caf841c7" y="197.607724"/>
      </g>
     </g>
     <g id="text_13">
      <text style="fill:#4d4d4d;font-family:DejaVu Sans;font-size:8.8px;font-stretch:normal;font-style:normal;font-weight:normal;text-anchor:end;" transform="rotate(-0, 33.749875, 200.035974)" x="33.749875" y="200.035974">17</text>
     </g>
    </g>
    <g id="ytick_8">
     <g id="line2d_29">
      <path clip-path="url(#pf3adf2f52d)" d="M 38.699875 186.137379 
L 395.819875 186.137379 
" style="fill:none;stroke:#ffffff;"/>
     </g>
     <g id="line2d_30">
      <path d="M 38.699875 186.137379 
" style="fill:none;stroke:#333333;stroke-width:1.5;"/>
      <g>
       <use style="fill:#333333;stroke:#000000;" x="38.699875" xlink:href="#m43caf841c7" y="186.137379"/>
      </g>
     </g>
     <g id="text_14">
      <text style="fill:#4d4d4d;font-family:DejaVu Sans;font-size:8.8px;font-stretch:normal;font-style:normal;font-weight:normal;text-anchor:end;" transform="rotate(-0, 33.749875, 188.565629)" x="33.749875" y="188.565629">20</text>
     </g>
    </g>
    <g id="ytick_9">
     <g id="line2d_31">
      <path clip-path="url(#pf3adf2f52d)" d="M 38.699875 174.667034 
L 395.819875 174.667034 
" style="fill:none;stroke:#ffffff;"/>
     </g>
     <g id="line2d_32">
      <path d="M 38.699875 174.667034 
" style="fill:none;stroke:#333333;stroke-width:1.5;"/>
      <g>
       <use style="fill:#333333;stroke:#000000;" x="38.699875" xlink:href="#m43caf841c7" y="174.667034"/>
      </g>
     </g>
     <g id="text_15">
      <text style="fill:#4d4d4d;font-family:DejaVu Sans;font-size:8.8px;font-stretch:normal;font-style:normal;font-weight:normal;text-anchor:end;" transform="rotate(-0, 33.749875, 177.095284)" x="33.749875" y="177.095284">21</text>
     </g>
    </g>
    <g id="ytick_10">
     <g id="line2d_33">
      <path clip-path="url(#pf3adf2f52d)" d="M 38.699875 163.19669 
L 395.819875 163.19669 
" style="fill:none;stroke:#ffffff;"/>
     </g>
     <g id="line2d_34">
      <path d="M 38.699875 163.19669 
" style="fill:none;stroke:#333333;stroke-width:1.5;"/>
      <g>
       <use style="fill:#333333;stroke:#000000;" x="38.699875" xlink:href="#m43caf841c7" y="163.19669"/>
      </g>
     </g>
     <g id="text_16">
      <text style="fill:#4d4d4d;font-family:DejaVu Sans;font-size:8.8px;font-stretch:normal;font-style:normal;font-weight:normal;text-anchor:end;" transform="rotate(-0, 33.749875, 165.62494)" x="33.749875" y="165.62494">22</text>
     </g>
    </g>
    <g id="ytick_11">
     <g id="line2d_35">
      <path clip-path="url(#pf3adf2f52d)" d="M 38.699875 151.726345 
L 395.819875 151.726345 
" style="fill:none;stroke:#ffffff;"/>
     </g>
     <g id="line2d_36">
      <path d="M 38.699875 151.726345 
" style="fill:none;stroke:#333333;stroke-width:1.5;"/>
      <g>
       <use style="fill:#333333;stroke:#000000;" x="38.699875" xlink:href="#m43caf841c7" y="151.726345"/>
      </g>
     </g>
     <g id="text_17">
      <text style="fill:#4d4d4d;font-family:DejaVu Sans;font-size:8.8px;font-stretch:normal;font-style:normal;font-weight:normal;text-anchor:end;" transform="rotate(-0, 33.749875, 154.154595)" x="33.749875" y="154.154595">30</text>
     </g>
    </g>
    <g id="ytick_12">
     <g id="line2d_37">
      <path clip-path="url(#pf3adf2f52d)" d="M 38.699875 140.256 
L 395.819875 140.256 
" style="fill:none;stroke:#ffffff;"/>
     </g>
     <g id="line2d_38">
      <path d="M 38.699875 140.256 
" style="fill:none;stroke:#333333;stroke-width:1.5;"/>
      <g>
       <use style="fill:#333333;stroke:#000000;" x="38.699875" xlink:href="#m43caf841c7" y="140.256"/>
      </g>
     </g>
     <g id="text_18">
      <text style="fill:#4d4d4d;font-family:DejaVu Sans;font-size:8.8px;font-stretch:normal;font-style:normal;font-weight:normal;text-anchor:end;" transform="rotate(-0, 33.749875, 142.68425)" x="33.749875" y="142.68425">32</text>
     </g>
    </g>
    <g id="ytick_13">
     <g id="line2d_39">
      <path clip-path="url(#pf3adf2f52d)" d="M 38.699875 128.785655 
L 395.819875 128.785655 
" style="fill:none;stroke:#ffffff;"/>
     </g>
     <g id="line2d_40">
      <path d="M 38.699875 128.785655 
" style="fill:none;stroke:#333333;stroke-width:1.5;"/>
      <g>
       <use style="fill:#333333;stroke:#000000;" x="38.699875" xlink:href="#m43caf841c7" y="128.785655"/>
      </g>
     </g>
     <g id="text_19">
      <text style="fill:#4d4d4d;font-family:DejaVu Sans;font-size:8.8px;font-stretch:normal;font-style:normal;font-weight:normal;text-anchor:end;" transform="rotate(-0, 33.749875, 131.213905)" x="33.749875" y="131.213905">35</text>
     </g>
    </g>
    <g id="ytick_14">
     <g id="line2d_41">
      <path clip-path="url(#pf3adf2f52d)" d="M 38.699875 117.31531 
L 395.819875 117.31531 
" style="fill:none;stroke:#ffffff;"/>
     </g>
     <g id="line2d_42">
      <path d="M 38.699875 117.31531 
" style="fill:none;stroke:#333333;stroke-width:1.5;"/>
      <g>
       <use style="fill:#333333;stroke:#000000;" x="38.699875" xlink:href="#m43caf841c7" y="117.31531"/>
      </g>
     </g>
     <g id="text_20">
      <text style="fill:#4d4d4d;font-family:DejaVu Sans;font-size:8.8px;font-stretch:normal;font-style:normal;font-weight:normal;text-anchor:end;" transform="rotate(-0, 33.749875, 119.74356)" x="33.749875" y="119.74356">36</text>
     </g>
    </g>
    <g id="ytick_15">
     <g id="line2d_43">
      <path clip-path="url(#pf3adf2f52d)" d="M 38.699875 105.844966 
L 395.819875 105.844966 
" style="fill:none;stroke:#ffffff;"/>
     </g>
     <g id="line2d_44">
      <path d="M 38.699875 105.844966 
" style="fill:none;stroke:#333333;stroke-width:1.5;"/>
      <g>
       <use style="fill:#333333;stroke:#000000;" x="38.699875" xlink:href="#m43caf841c7" y="105.844966"/>
      </g>
     </g>
     <g id="text_21">
      <text style="fill:#4d4d4d;font-family:DejaVu Sans;font-size:8.8px;font-stretch:normal;font-style:normal;font-weight:normal;text-anchor:end;" transform="rotate(-0, 33.749875, 108.273216)" x="33.749875" y="108.273216">51</text>
     </g>
    </g>
    <g id="ytick_16">
     <g id="line2d_45">
      <path clip-path="url(#pf3adf2f52d)" d="M 38.699875 94.374621 
L 395.819875 94.374621 
" style="fill:none;stroke:#ffffff;"/>
     </g>
     <g id="line2d_46">
      <path d="M 38.699875 94.374621 
" style="fill:none;stroke:#333333;stroke-width:1.5;"/>
      <g>
       <use style="fill:#333333;stroke:#000000;" x="38.699875" xlink:href="#m43caf841c7" y="94.374621"/>
      </g>
     </g>
     <g id="text_22">
      <text style="fill:#4d4d4d;font-family:DejaVu Sans;font-size:8.8px;font-stretch:normal;font-style:normal;font-weight:normal;text-anchor:end;" transform="rotate(-0, 33.749875, 96.802871)" x="33.749875" y="96.802871">52</text>
     </g>
    </g>
    <g id="ytick_17">
     <g id="line2d_47">
      <path clip-path="url(#pf3adf2f52d)" d="M 38.699875 82.904276 
L 395.819875 82.904276 
" style="fill:none;stroke:#ffffff;"/>
     </g>
     <g id="line2d_48">
      <path d="M 38.699875 82.904276 
" style="fill:none;stroke:#333333;stroke-width:1.5;"/>
      <g>
       <use style="fill:#333333;stroke:#000000;" x="38.699875" xlink:href="#m43caf841c7" y="82.904276"/>
      </g>
     </g>
     <g id="text_23">
      <text style="fill:#4d4d4d;font-family:DejaVu Sans;font-size:8.8px;font-stretch:normal;font-style:normal;font-weight:normal;text-anchor:end;" transform="rotate(-0, 33.749875, 85.332526)" x="33.749875" y="85.332526">54</text>
     </g>
    </g>
    <g id="ytick_18">
     <g id="line2d_49">
      <path clip-path="url(#pf3adf2f52d)" d="M 38.699875 71.433931 
L 395.819875 71.433931 
" style="fill:none;stroke:#ffffff;"/>
     </g>
     <g id="line2d_50">
      <path d="M 38.699875 71.433931 
" style="fill:none;stroke:#333333;stroke-width:1.5;"/>
      <g>
       <use style="fill:#333333;stroke:#000000;" x="38.699875" xlink:href="#m43caf841c7" y="71.433931"/>
      </g>
     </g>
     <g id="text_24">
      <text style="fill:#4d4d4d;font-family:DejaVu Sans;font-size:8.8px;font-stretch:normal;font-style:normal;font-weight:normal;text-anchor:end;" transform="rotate(-0, 33.749875, 73.862181)" x="33.749875" y="73.862181">6</text>
     </g>
    </g>
    <g id="ytick_19">
     <g id="line2d_51">
      <path clip-path="url(#pf3adf2f52d)" d="M 38.699875 59.963586 
L 395.819875 59.963586 
" style="fill:none;stroke:#ffffff;"/>
     </g>
     <g id="line2d_52">
      <path d="M 38.699875 59.963586 
" style="fill:none;stroke:#333333;stroke-width:1.5;"/>
      <g>
       <use style="fill:#333333;stroke:#000000;" x="38.699875" xlink:href="#m43caf841c7" y="59.963586"/>
      </g>
     </g>
     <g id="text_25">
      <text style="fill:#4d4d4d;font-family:DejaVu Sans;font-size:8.8px;font-stretch:normal;font-style:normal;font-weight:normal;text-anchor:end;" transform="rotate(-0, 33.749875, 62.391836)" x="33.749875" y="62.391836">7</text>
     </g>
    </g>
    <g id="ytick_20">
     <g id="line2d_53">
      <path clip-path="url(#pf3adf2f52d)" d="M 38.699875 48.493241 
L 395.819875 48.493241 
" style="fill:none;stroke:#ffffff;"/>
     </g>
     <g id="line2d_54">
      <path d="M 38.699875 48.493241 
" style="fill:none;stroke:#333333;stroke-width:1.5;"/>
      <g>
       <use style="fill:#333333;stroke:#000000;" x="38.699875" xlink:href="#m43caf841c7" y="48.493241"/>
      </g>
     </g>
     <g id="text_26">
      <text style="fill:#4d4d4d;font-family:DejaVu Sans;font-size:8.8px;font-stretch:normal;font-style:normal;font-weight:normal;text-anchor:end;" transform="rotate(-0, 33.749875, 50.921491)" x="33.749875" y="50.921491">8</text>
     </g>
    </g>
    <g id="ytick_21">
     <g id="line2d_55">
      <path clip-path="url(#pf3adf2f52d)" d="M 38.699875 37.022897 
L 395.819875 37.022897 
" style="fill:none;stroke:#ffffff;"/>
     </g>
     <g id="line2d_56">
      <path d="M 38.699875 37.022897 
" style="fill:none;stroke:#333333;stroke-width:1.5;"/>
      <g>
       <use style="fill:#333333;stroke:#000000;" x="38.699875" xlink:href="#m43caf841c7" y="37.022897"/>
      </g>
     </g>
     <g id="text_27">
      <text style="fill:#4d4d4d;font-family:DejaVu Sans;font-size:8.8px;font-stretch:normal;font-style:normal;font-weight:normal;text-anchor:end;" transform="rotate(-0, 33.749875, 39.451147)" x="33.749875" y="39.451147">86</text>
     </g>
    </g>
    <g id="ytick_22">
     <g id="line2d_57">
      <path clip-path="url(#pf3adf2f52d)" d="M 38.699875 25.552552 
L 395.819875 25.552552 
" style="fill:none;stroke:#ffffff;"/>
     </g>
     <g id="line2d_58">
      <path d="M 38.699875 25.552552 
" style="fill:none;stroke:#333333;stroke-width:1.5;"/>
      <g>
       <use style="fill:#333333;stroke:#000000;" x="38.699875" xlink:href="#m43caf841c7" y="25.552552"/>
      </g>
     </g>
     <g id="text_28">
      <text style="fill:#4d4d4d;font-family:DejaVu Sans;font-size:8.8px;font-stretch:normal;font-style:normal;font-weight:normal;text-anchor:end;" transform="rotate(-0, 33.749875, 27.980802)" x="33.749875" y="27.980802">9</text>
     </g>
    </g>
    <g id="ytick_23">
     <g id="line2d_59">
      <path clip-path="url(#pf3adf2f52d)" d="M 38.699875 14.082207 
L 395.819875 14.082207 
" style="fill:none;stroke:#ffffff;"/>
     </g>
     <g id="line2d_60">
      <path d="M 38.699875 14.082207 
" style="fill:none;stroke:#333333;stroke-width:1.5;"/>
      <g>
       <use style="fill:#333333;stroke:#000000;" x="38.699875" xlink:href="#m43caf841c7" y="14.082207"/>
      </g>
     </g>
     <g id="text_29">
      <text style="fill:#4d4d4d;font-family:DejaVu Sans;font-size:8.8px;font-stretch:normal;font-style:normal;font-weight:normal;text-anchor:end;" transform="rotate(-0, 33.749875, 16.510457)" x="33.749875" y="16.510457">s</text>
     </g>
    </g>
    <g id="text_30">
     <text style="font-family:DejaVu Sans;font-size:11px;font-stretch:normal;font-style:normal;font-weight:normal;text-anchor:middle;" transform="rotate(-90, 15.558281, 138.528)" x="15.558281" y="138.528">numb_shelter</text>
    </g>
   </g>
   <g id="PolyCollection_1">
    <path clip-path="url(#pf3adf2f52d)" d="M 54.932602 271.591448 
L 54.932602 261.268138 
L 74.78817 261.268138 
L 74.78817 271.591448 
z
" style="fill:#db5f57;"/>
    <path clip-path="url(#pf3adf2f52d)" d="M 54.932602 260.121103 
L 54.932602 249.797793 
L 77.590367 249.797793 
L 77.590367 260.121103 
z
" style="fill:#db8157;"/>
    <path clip-path="url(#pf3adf2f52d)" d="M 54.932602 248.650759 
L 54.932602 238.327448 
L 73.547197 238.327448 
L 73.547197 248.650759 
z
" style="fill:#dba457;"/>
    <path clip-path="url(#pf3adf2f52d)" d="M 54.932602 237.180414 
L 54.932602 226.857103 
L 101.689262 226.857103 
L 101.689262 237.180414 
z
" style="fill:#dbc657;"/>
    <path clip-path="url(#pf3adf2f52d)" d="M 54.932602 225.710069 
L 54.932602 215.386759 
L 125.187686 215.386759 
L 125.187686 225.710069 
z
" style="fill:#cedb57;"/>
    <path clip-path="url(#pf3adf2f52d)" d="M 54.932602 214.239724 
L 54.932602 203.916414 
L 88.91925 203.916414 
L 88.91925 214.239724 
z
" style="fill:#abdb57;"/>
    <path clip-path="url(#pf3adf2f52d)" d="M 88.91925 214.239724 
L 88.91925 203.916414 
L 172.344659 203.916414 
L 172.344659 214.239724 
z
" style="fill:#abdb57;"/>
    <path clip-path="url(#pf3adf2f52d)" d="M 172.344659 214.239724 
L 172.344659 203.916414 
L 247.323446 203.916414 
L 247.323446 214.239724 
z
" style="fill:#abdb57;"/>
    <path clip-path="url(#pf3adf2f52d)" d="M 247.323446 214.239724 
L 247.323446 203.916414 
L 313.735517 203.916414 
L 313.735517 214.239724 
z
" style="fill:#abdb57;"/>
    <path clip-path="url(#pf3adf2f52d)" d="M 54.932602 202.769379 
L 54.932602 192.446069 
L 112.817987 192.446069 
L 112.817987 202.769379 
z
" style="fill:#88db57;"/>
    <path clip-path="url(#pf3adf2f52d)" d="M 54.932602 191.299034 
L 54.932602 180.975724 
L 79.551905 180.975724 
L 79.551905 191.299034 
z
" style="fill:#66db57;"/>
    <path clip-path="url(#pf3adf2f52d)" d="M 79.551905 191.299034 
L 79.551905 180.975724 
L 135.355658 180.975724 
L 135.355658 191.299034 
z
" style="fill:#66db57;"/>
    <path clip-path="url(#pf3adf2f52d)" d="M 135.355658 191.299034 
L 135.355658 180.975724 
L 159.174333 180.975724 
L 159.174333 191.299034 
z
" style="fill:#66db57;"/>
    <path clip-path="url(#pf3adf2f52d)" d="M 54.932602 179.82869 
L 54.932602 169.505379 
L 81.913757 169.505379 
L 81.913757 179.82869 
z
" style="fill:#57db6a;"/>
    <path clip-path="url(#pf3adf2f52d)" d="M 54.932602 168.358345 
L 54.932602 158.035034 
L 118.582507 158.035034 
L 118.582507 168.358345 
z
" style="fill:#57db8d;"/>
    <path clip-path="url(#pf3adf2f52d)" d="M 54.932602 156.888 
L 54.932602 146.56469 
L 145.363505 146.56469 
L 145.363505 156.888 
z
" style="fill:#57dbaf;"/>
    <path clip-path="url(#pf3adf2f52d)" d="M 54.932602 145.417655 
L 54.932602 135.094345 
L 136.076223 135.094345 
L 136.076223 145.417655 
z
" style="fill:#57dbd2;"/>
    <path clip-path="url(#pf3adf2f52d)" d="M 54.932602 133.94731 
L 54.932602 123.624 
L 112.137454 123.624 
L 112.137454 133.94731 
z
" style="fill:#57c2db;"/>
    <path clip-path="url(#pf3adf2f52d)" d="M 54.932602 122.476966 
L 54.932602 112.153655 
L 108.934943 112.153655 
L 108.934943 122.476966 
z
" style="fill:#579fdb;"/>
    <path clip-path="url(#pf3adf2f52d)" d="M 54.932602 111.006621 
L 54.932602 100.68331 
L 90.240285 100.68331 
L 90.240285 111.006621 
z
" style="fill:#577ddb;"/>
    <path clip-path="url(#pf3adf2f52d)" d="M 54.932602 99.536276 
L 54.932602 89.212966 
L 155.651571 89.212966 
L 155.651571 99.536276 
z
" style="fill:#575adb;"/>
    <path clip-path="url(#pf3adf2f52d)" d="M 54.932602 88.065931 
L 54.932602 77.742621 
L 86.437304 77.742621 
L 86.437304 88.065931 
z
" style="fill:#7657db;"/>
    <path clip-path="url(#pf3adf2f52d)" d="M 54.932602 76.595586 
L 54.932602 66.272276 
L 102.890203 66.272276 
L 102.890203 76.595586 
z
" style="fill:#9857db;"/>
    <path clip-path="url(#pf3adf2f52d)" d="M 54.932602 65.125241 
L 54.932602 54.801931 
L 193.681388 54.801931 
L 193.681388 65.125241 
z
" style="fill:#bb57db;"/>
    <path clip-path="url(#pf3adf2f52d)" d="M 54.932602 53.654897 
L 54.932602 43.331586 
L 89.479689 43.331586 
L 89.479689 53.654897 
z
" style="fill:#db57d9;"/>
    <path clip-path="url(#pf3adf2f52d)" d="M 54.932602 42.184552 
L 54.932602 31.861241 
L 139.278734 31.861241 
L 139.278734 42.184552 
z
" style="fill:#db57b7;"/>
    <path clip-path="url(#pf3adf2f52d)" d="M 54.932602 30.714207 
L 54.932602 20.390897 
L 84.956142 20.390897 
L 84.956142 30.714207 
z
" style="fill:#db5794;"/>
    <path clip-path="url(#pf3adf2f52d)" d="M 54.932602 19.243862 
L 54.932602 8.920552 
L 75.428672 8.920552 
L 75.428672 19.243862 
z
" style="fill:#db5771;"/>
    <path clip-path="url(#pf3adf2f52d)" d="M 75.428672 19.243862 
L 75.428672 8.920552 
L 193.4412 8.920552 
L 193.4412 19.243862 
z
" style="fill:#db5771;"/>
    <path clip-path="url(#pf3adf2f52d)" d="M 193.4412 19.243862 
L 193.4412 8.920552 
L 267.659391 8.920552 
L 267.659391 19.243862 
z
" style="fill:#db5771;"/>
    <path clip-path="url(#pf3adf2f52d)" d="M 267.659391 19.243862 
L 267.659391 8.920552 
L 339.115416 8.920552 
L 339.115416 19.243862 
z
" style="fill:#db5771;"/>
    <path clip-path="url(#pf3adf2f52d)" d="M 339.115416 19.243862 
L 339.115416 8.920552 
L 379.587148 8.920552 
L 379.587148 19.243862 
z
" style="fill:#db5771;"/>
   </g>
   <g id="patch_3">
    <path d="M 403.019875 264.443937 
L 502.689094 264.443937 
L 502.689094 12.612062 
L 403.019875 12.612062 
z
" style="fill:#ffffff;"/>
   </g>
   <g id="text_31">
    <text style="font-family:DejaVu Sans;font-size:11px;font-stretch:normal;font-style:normal;font-weight:normal;text-anchor:start;" transform="rotate(-0, 415.219875, 36.052687)" x="415.219875" y="36.052687">numb_shelter</text>
   </g>
   <g id="patch_4">
    <path clip-path="url(#p21976fc23d)" d="M 415.219875 56.003937 
L 431.059875 56.003937 
L 431.059875 40.163937 
L 415.219875 40.163937 
z
" style="fill:#f2f2f2;"/>
   </g>
   <g id="patch_5">
    <path clip-path="url(#p21976fc23d)" d="M 415.219875 56.003937 
L 431.059875 56.003937 
L 431.059875 40.163937 
L 415.219875 40.163937 
z
" style="fill:#db5f57;"/>
   </g>
   <g id="text_32">
    <text style="font-family:DejaVu Sans;font-size:8.8px;font-stretch:normal;font-style:normal;font-weight:normal;text-anchor:start;" transform="rotate(-0, 434.059875, 50.512187)" x="434.059875" y="50.512187">10</text>
   </g>
   <g id="patch_6">
    <path clip-path="url(#p4c663b98ed)" d="M 415.219875 73.843937 
L 431.059875 73.843937 
L 431.059875 58.003937 
L 415.219875 58.003937 
z
" style="fill:#f2f2f2;"/>
   </g>
   <g id="patch_7">
    <path clip-path="url(#p4c663b98ed)" d="M 415.219875 73.843937 
L 431.059875 73.843937 
L 431.059875 58.003937 
L 415.219875 58.003937 
z
" style="fill:#db8157;"/>
   </g>
   <g id="text_33">
    <text style="font-family:DejaVu Sans;font-size:8.8px;font-stretch:normal;font-style:normal;font-weight:normal;text-anchor:start;" transform="rotate(-0, 434.059875, 68.352187)" x="434.059875" y="68.352187">11</text>
   </g>
   <g id="patch_8">
    <path clip-path="url(#p97deb5a359)" d="M 415.219875 91.683937 
L 431.059875 91.683937 
L 431.059875 75.843937 
L 415.219875 75.843937 
z
" style="fill:#f2f2f2;"/>
   </g>
   <g id="patch_9">
    <path clip-path="url(#p97deb5a359)" d="M 415.219875 91.683937 
L 431.059875 91.683937 
L 431.059875 75.843937 
L 415.219875 75.843937 
z
" style="fill:#dba457;"/>
   </g>
   <g id="text_34">
    <text style="font-family:DejaVu Sans;font-size:8.8px;font-stretch:normal;font-style:normal;font-weight:normal;text-anchor:start;" transform="rotate(-0, 434.059875, 86.192187)" x="434.059875" y="86.192187">12</text>
   </g>
   <g id="patch_10">
    <path clip-path="url(#pfd90f78b4f)" d="M 415.219875 109.523937 
L 431.059875 109.523937 
L 431.059875 93.683937 
L 415.219875 93.683937 
z
" style="fill:#f2f2f2;"/>
   </g>
   <g id="patch_11">
    <path clip-path="url(#pfd90f78b4f)" d="M 415.219875 109.523937 
L 431.059875 109.523937 
L 431.059875 93.683937 
L 415.219875 93.683937 
z
" style="fill:#dbc657;"/>
   </g>
   <g id="text_35">
    <text style="font-family:DejaVu Sans;font-size:8.8px;font-stretch:normal;font-style:normal;font-weight:normal;text-anchor:start;" transform="rotate(-0, 434.059875, 104.032187)" x="434.059875" y="104.032187">13</text>
   </g>
   <g id="patch_12">
    <path clip-path="url(#p547c87acb7)" d="M 415.219875 127.363937 
L 431.059875 127.363937 
L 431.059875 111.523937 
L 415.219875 111.523937 
z
" style="fill:#f2f2f2;"/>
   </g>
   <g id="patch_13">
    <path clip-path="url(#p547c87acb7)" d="M 415.219875 127.363937 
L 431.059875 127.363937 
L 431.059875 111.523937 
L 415.219875 111.523937 
z
" style="fill:#cedb57;"/>
   </g>
   <g id="text_36">
    <text style="font-family:DejaVu Sans;font-size:8.8px;font-stretch:normal;font-style:normal;font-weight:normal;text-anchor:start;" transform="rotate(-0, 434.059875, 121.872187)" x="434.059875" y="121.872187">14</text>
   </g>
   <g id="patch_14">
    <path clip-path="url(#p60ffc76aad)" d="M 415.219875 145.203937 
L 431.059875 145.203937 
L 431.059875 129.363937 
L 415.219875 129.363937 
z
" style="fill:#f2f2f2;"/>
   </g>
   <g id="patch_15">
    <path clip-path="url(#p60ffc76aad)" d="M 415.219875 145.203937 
L 431.059875 145.203937 
L 431.059875 129.363937 
L 415.219875 129.363937 
z
" style="fill:#abdb57;"/>
   </g>
   <g id="text_37">
    <text style="font-family:DejaVu Sans;font-size:8.8px;font-stretch:normal;font-style:normal;font-weight:normal;text-anchor:start;" transform="rotate(-0, 434.059875, 139.712187)" x="434.059875" y="139.712187">16</text>
   </g>
   <g id="patch_16">
    <path clip-path="url(#pf6d6cc52e2)" d="M 415.219875 163.043937 
L 431.059875 163.043937 
L 431.059875 147.203937 
L 415.219875 147.203937 
z
" style="fill:#f2f2f2;"/>
   </g>
   <g id="patch_17">
    <path clip-path="url(#pf6d6cc52e2)" d="M 415.219875 163.043937 
L 431.059875 163.043937 
L 431.059875 147.203937 
L 415.219875 147.203937 
z
" style="fill:#88db57;"/>
   </g>
   <g id="text_38">
    <text style="font-family:DejaVu Sans;font-size:8.8px;font-stretch:normal;font-style:normal;font-weight:normal;text-anchor:start;" transform="rotate(-0, 434.059875, 157.552187)" x="434.059875" y="157.552187">17</text>
   </g>
   <g id="patch_18">
    <path clip-path="url(#p0f2f60ea1c)" d="M 415.219875 180.883937 
L 431.059875 180.883937 
L 431.059875 165.043937 
L 415.219875 165.043937 
z
" style="fill:#f2f2f2;"/>
   </g>
   <g id="patch_19">
    <path clip-path="url(#p0f2f60ea1c)" d="M 415.219875 180.883937 
L 431.059875 180.883937 
L 431.059875 165.043937 
L 415.219875 165.043937 
z
" style="fill:#66db57;"/>
   </g>
   <g id="text_39">
    <text style="font-family:DejaVu Sans;font-size:8.8px;font-stretch:normal;font-style:normal;font-weight:normal;text-anchor:start;" transform="rotate(-0, 434.059875, 175.392187)" x="434.059875" y="175.392187">20</text>
   </g>
   <g id="patch_20">
    <path clip-path="url(#paf861515ee)" d="M 415.219875 198.723937 
L 431.059875 198.723937 
L 431.059875 182.883937 
L 415.219875 182.883937 
z
" style="fill:#f2f2f2;"/>
   </g>
   <g id="patch_21">
    <path clip-path="url(#paf861515ee)" d="M 415.219875 198.723937 
L 431.059875 198.723937 
L 431.059875 182.883937 
L 415.219875 182.883937 
z
" style="fill:#57db6a;"/>
   </g>
   <g id="text_40">
    <text style="font-family:DejaVu Sans;font-size:8.8px;font-stretch:normal;font-style:normal;font-weight:normal;text-anchor:start;" transform="rotate(-0, 434.059875, 193.232187)" x="434.059875" y="193.232187">21</text>
   </g>
   <g id="patch_22">
    <path clip-path="url(#pc6d9d7a477)" d="M 415.219875 216.563937 
L 431.059875 216.563937 
L 431.059875 200.723937 
L 415.219875 200.723937 
z
" style="fill:#f2f2f2;"/>
   </g>
   <g id="patch_23">
    <path clip-path="url(#pc6d9d7a477)" d="M 415.219875 216.563937 
L 431.059875 216.563937 
L 431.059875 200.723937 
L 415.219875 200.723937 
z
" style="fill:#57db8d;"/>
   </g>
   <g id="text_41">
    <text style="font-family:DejaVu Sans;font-size:8.8px;font-stretch:normal;font-style:normal;font-weight:normal;text-anchor:start;" transform="rotate(-0, 434.059875, 211.072187)" x="434.059875" y="211.072187">22</text>
   </g>
   <g id="patch_24">
    <path clip-path="url(#pe7d72345b2)" d="M 415.219875 234.403937 
L 431.059875 234.403937 
L 431.059875 218.563937 
L 415.219875 218.563937 
z
" style="fill:#f2f2f2;"/>
   </g>
   <g id="patch_25">
    <path clip-path="url(#pe7d72345b2)" d="M 415.219875 234.403937 
L 431.059875 234.403937 
L 431.059875 218.563937 
L 415.219875 218.563937 
z
" style="fill:#57dbaf;"/>
   </g>
   <g id="text_42">
    <text style="font-family:DejaVu Sans;font-size:8.8px;font-stretch:normal;font-style:normal;font-weight:normal;text-anchor:start;" transform="rotate(-0, 434.059875, 228.912187)" x="434.059875" y="228.912187">30</text>
   </g>
   <g id="patch_26">
    <path clip-path="url(#p599f41a071)" d="M 415.219875 252.243937 
L 431.059875 252.243937 
L 431.059875 236.403937 
L 415.219875 236.403937 
z
" style="fill:#f2f2f2;"/>
   </g>
   <g id="patch_27">
    <path clip-path="url(#p599f41a071)" d="M 415.219875 252.243937 
L 431.059875 252.243937 
L 431.059875 236.403937 
L 415.219875 236.403937 
z
" style="fill:#57dbd2;"/>
   </g>
   <g id="text_43">
    <text style="font-family:DejaVu Sans;font-size:8.8px;font-stretch:normal;font-style:normal;font-weight:normal;text-anchor:start;" transform="rotate(-0, 434.059875, 246.752187)" x="434.059875" y="246.752187">32</text>
   </g>
   <g id="patch_28">
    <path clip-path="url(#p611899a2c1)" d="M 450.257875 56.003937 
L 466.097875 56.003937 
L 466.097875 40.163937 
L 450.257875 40.163937 
z
" style="fill:#f2f2f2;"/>
   </g>
   <g id="patch_29">
    <path clip-path="url(#p611899a2c1)" d="M 450.257875 56.003937 
L 466.097875 56.003937 
L 466.097875 40.163937 
L 450.257875 40.163937 
z
" style="fill:#57c2db;"/>
   </g>
   <g id="text_44">
    <text style="font-family:DejaVu Sans;font-size:8.8px;font-stretch:normal;font-style:normal;font-weight:normal;text-anchor:start;" transform="rotate(-0, 469.097875, 50.512187)" x="469.097875" y="50.512187">35</text>
   </g>
   <g id="patch_30">
    <path clip-path="url(#p596fa53945)" d="M 450.257875 73.843937 
L 466.097875 73.843937 
L 466.097875 58.003937 
L 450.257875 58.003937 
z
" style="fill:#f2f2f2;"/>
   </g>
   <g id="patch_31">
    <path clip-path="url(#p596fa53945)" d="M 450.257875 73.843937 
L 466.097875 73.843937 
L 466.097875 58.003937 
L 450.257875 58.003937 
z
" style="fill:#579fdb;"/>
   </g>
   <g id="text_45">
    <text style="font-family:DejaVu Sans;font-size:8.8px;font-stretch:normal;font-style:normal;font-weight:normal;text-anchor:start;" transform="rotate(-0, 469.097875, 68.352187)" x="469.097875" y="68.352187">36</text>
   </g>
   <g id="patch_32">
    <path clip-path="url(#pb2fb836780)" d="M 450.257875 91.683937 
L 466.097875 91.683937 
L 466.097875 75.843937 
L 450.257875 75.843937 
z
" style="fill:#f2f2f2;"/>
   </g>
   <g id="patch_33">
    <path clip-path="url(#pb2fb836780)" d="M 450.257875 91.683937 
L 466.097875 91.683937 
L 466.097875 75.843937 
L 450.257875 75.843937 
z
" style="fill:#577ddb;"/>
   </g>
   <g id="text_46">
    <text style="font-family:DejaVu Sans;font-size:8.8px;font-stretch:normal;font-style:normal;font-weight:normal;text-anchor:start;" transform="rotate(-0, 469.097875, 86.192187)" x="469.097875" y="86.192187">51</text>
   </g>
   <g id="patch_34">
    <path clip-path="url(#pfe147f5780)" d="M 450.257875 109.523937 
L 466.097875 109.523937 
L 466.097875 93.683937 
L 450.257875 93.683937 
z
" style="fill:#f2f2f2;"/>
   </g>
   <g id="patch_35">
    <path clip-path="url(#pfe147f5780)" d="M 450.257875 109.523937 
L 466.097875 109.523937 
L 466.097875 93.683937 
L 450.257875 93.683937 
z
" style="fill:#575adb;"/>
   </g>
   <g id="text_47">
    <text style="font-family:DejaVu Sans;font-size:8.8px;font-stretch:normal;font-style:normal;font-weight:normal;text-anchor:start;" transform="rotate(-0, 469.097875, 104.032187)" x="469.097875" y="104.032187">52</text>
   </g>
   <g id="patch_36">
    <path clip-path="url(#pbc80267d9b)" d="M 450.257875 127.363937 
L 466.097875 127.363937 
L 466.097875 111.523937 
L 450.257875 111.523937 
z
" style="fill:#f2f2f2;"/>
   </g>
   <g id="patch_37">
    <path clip-path="url(#pbc80267d9b)" d="M 450.257875 127.363937 
L 466.097875 127.363937 
L 466.097875 111.523937 
L 450.257875 111.523937 
z
" style="fill:#7657db;"/>
   </g>
   <g id="text_48">
    <text style="font-family:DejaVu Sans;font-size:8.8px;font-stretch:normal;font-style:normal;font-weight:normal;text-anchor:start;" transform="rotate(-0, 469.097875, 121.872187)" x="469.097875" y="121.872187">54</text>
   </g>
   <g id="patch_38">
    <path clip-path="url(#peed8961319)" d="M 450.257875 145.203937 
L 466.097875 145.203937 
L 466.097875 129.363937 
L 450.257875 129.363937 
z
" style="fill:#f2f2f2;"/>
   </g>
   <g id="patch_39">
    <path clip-path="url(#peed8961319)" d="M 450.257875 145.203937 
L 466.097875 145.203937 
L 466.097875 129.363937 
L 450.257875 129.363937 
z
" style="fill:#9857db;"/>
   </g>
   <g id="text_49">
    <text style="font-family:DejaVu Sans;font-size:8.8px;font-stretch:normal;font-style:normal;font-weight:normal;text-anchor:start;" transform="rotate(-0, 469.097875, 139.712187)" x="469.097875" y="139.712187">6</text>
   </g>
   <g id="patch_40">
    <path clip-path="url(#p5ace0729e4)" d="M 450.257875 163.043937 
L 466.097875 163.043937 
L 466.097875 147.203937 
L 450.257875 147.203937 
z
" style="fill:#f2f2f2;"/>
   </g>
   <g id="patch_41">
    <path clip-path="url(#p5ace0729e4)" d="M 450.257875 163.043937 
L 466.097875 163.043937 
L 466.097875 147.203937 
L 450.257875 147.203937 
z
" style="fill:#bb57db;"/>
   </g>
   <g id="text_50">
    <text style="font-family:DejaVu Sans;font-size:8.8px;font-stretch:normal;font-style:normal;font-weight:normal;text-anchor:start;" transform="rotate(-0, 469.097875, 157.552187)" x="469.097875" y="157.552187">7</text>
   </g>
   <g id="patch_42">
    <path clip-path="url(#p761d645bf6)" d="M 450.257875 180.883937 
L 466.097875 180.883937 
L 466.097875 165.043937 
L 450.257875 165.043937 
z
" style="fill:#f2f2f2;"/>
   </g>
   <g id="patch_43">
    <path clip-path="url(#p761d645bf6)" d="M 450.257875 180.883937 
L 466.097875 180.883937 
L 466.097875 165.043937 
L 450.257875 165.043937 
z
" style="fill:#db57d9;"/>
   </g>
   <g id="text_51">
    <text style="font-family:DejaVu Sans;font-size:8.8px;font-stretch:normal;font-style:normal;font-weight:normal;text-anchor:start;" transform="rotate(-0, 469.097875, 175.392187)" x="469.097875" y="175.392187">8</text>
   </g>
   <g id="patch_44">
    <path clip-path="url(#pc56b2529b1)" d="M 450.257875 198.723937 
L 466.097875 198.723937 
L 466.097875 182.883937 
L 450.257875 182.883937 
z
" style="fill:#f2f2f2;"/>
   </g>
   <g id="patch_45">
    <path clip-path="url(#pc56b2529b1)" d="M 450.257875 198.723937 
L 466.097875 198.723937 
L 466.097875 182.883937 
L 450.257875 182.883937 
z
" style="fill:#db57b7;"/>
   </g>
   <g id="text_52">
    <text style="font-family:DejaVu Sans;font-size:8.8px;font-stretch:normal;font-style:normal;font-weight:normal;text-anchor:start;" transform="rotate(-0, 469.097875, 193.232187)" x="469.097875" y="193.232187">86</text>
   </g>
   <g id="patch_46">
    <path clip-path="url(#p33c94eddf1)" d="M 450.257875 216.563937 
L 466.097875 216.563937 
L 466.097875 200.723937 
L 450.257875 200.723937 
z
" style="fill:#f2f2f2;"/>
   </g>
   <g id="patch_47">
    <path clip-path="url(#p33c94eddf1)" d="M 450.257875 216.563937 
L 466.097875 216.563937 
L 466.097875 200.723937 
L 450.257875 200.723937 
z
" style="fill:#db5794;"/>
   </g>
   <g id="text_53">
    <text style="font-family:DejaVu Sans;font-size:8.8px;font-stretch:normal;font-style:normal;font-weight:normal;text-anchor:start;" transform="rotate(-0, 469.097875, 211.072187)" x="469.097875" y="211.072187">9</text>
   </g>
   <g id="patch_48">
    <path clip-path="url(#p480bf7e316)" d="M 450.257875 234.403937 
L 466.097875 234.403937 
L 466.097875 218.563937 
L 450.257875 218.563937 
z
" style="fill:#f2f2f2;"/>
   </g>
   <g id="patch_49">
    <path clip-path="url(#p480bf7e316)" d="M 450.257875 234.403937 
L 466.097875 234.403937 
L 466.097875 218.563937 
L 450.257875 218.563937 
z
" style="fill:#db5771;"/>
   </g>
   <g id="text_54">
    <text style="font-family:DejaVu Sans;font-size:8.8px;font-stretch:normal;font-style:normal;font-weight:normal;text-anchor:start;" transform="rotate(-0, 469.097875, 228.912187)" x="469.097875" y="228.912187">s</text>
   </g>
  </g>
 </g>
 <defs>
  <clipPath id="pf3adf2f52d">
   <rect height="266.112" width="357.12" x="38.699875" y="7.2"/>
  </clipPath>
  <clipPath id="p21976fc23d">
   <path d="M 415.219875 56.003937 
L 415.219875 40.163937 
L 431.059875 40.163937 
L 431.059875 56.003937 
"/>
  </clipPath>
  <clipPath id="p4c663b98ed">
   <path d="M 415.219875 73.843937 
L 415.219875 58.003937 
L 431.059875 58.003937 
L 431.059875 73.843937 
"/>
  </clipPath>
  <clipPath id="p97deb5a359">
   <path d="M 415.219875 91.683937 
L 415.219875 75.843937 
L 431.059875 75.843937 
L 431.059875 91.683937 
"/>
  </clipPath>
  <clipPath id="pfd90f78b4f">
   <path d="M 415.219875 109.523937 
L 415.219875 93.683937 
L 431.059875 93.683937 
L 431.059875 109.523937 
"/>
  </clipPath>
  <clipPath id="p547c87acb7">
   <path d="M 415.219875 127.363937 
L 415.219875 111.523937 
L 431.059875 111.523937 
L 431.059875 127.363937 
"/>
  </clipPath>
  <clipPath id="p60ffc76aad">
   <path d="M 415.219875 145.203937 
L 415.219875 129.363937 
L 431.059875 129.363937 
L 431.059875 145.203937 
"/>
  </clipPath>
  <clipPath id="pf6d6cc52e2">
   <path d="M 415.219875 163.043937 
L 415.219875 147.203937 
L 431.059875 147.203937 
L 431.059875 163.043937 
"/>
  </clipPath>
  <clipPath id="p0f2f60ea1c">
   <path d="M 415.219875 180.883937 
L 415.219875 165.043937 
L 431.059875 165.043937 
L 431.059875 180.883937 
"/>
  </clipPath>
  <clipPath id="paf861515ee">
   <path d="M 415.219875 198.723937 
L 415.219875 182.883937 
L 431.059875 182.883937 
L 431.059875 198.723937 
"/>
  </clipPath>
  <clipPath id="pc6d9d7a477">
   <path d="M 415.219875 216.563937 
L 415.219875 200.723937 
L 431.059875 200.723937 
L 431.059875 216.563937 
"/>
  </clipPath>
  <clipPath id="pe7d72345b2">
   <path d="M 415.219875 234.403937 
L 415.219875 218.563937 
L 431.059875 218.563937 
L 431.059875 234.403937 
"/>
  </clipPath>
  <clipPath id="p599f41a071">
   <path d="M 415.219875 252.243937 
L 415.219875 236.403937 
L 431.059875 236.403937 
L 431.059875 252.243937 
"/>
  </clipPath>
  <clipPath id="p611899a2c1">
   <path d="M 450.257875 56.003937 
L 450.257875 40.163937 
L 466.097875 40.163937 
L 466.097875 56.003937 
"/>
  </clipPath>
  <clipPath id="p596fa53945">
   <path d="M 450.257875 73.843937 
L 450.257875 58.003937 
L 466.097875 58.003937 
L 466.097875 73.843937 
"/>
  </clipPath>
  <clipPath id="pb2fb836780">
   <path d="M 450.257875 91.683937 
L 450.257875 75.843937 
L 466.097875 75.843937 
L 466.097875 91.683937 
"/>
  </clipPath>
  <clipPath id="pfe147f5780">
   <path d="M 450.257875 109.523937 
L 450.257875 93.683937 
L 466.097875 93.683937 
L 466.097875 109.523937 
"/>
  </clipPath>
  <clipPath id="pbc80267d9b">
   <path d="M 450.257875 127.363937 
L 450.257875 111.523937 
L 466.097875 111.523937 
L 466.097875 127.363937 
"/>
  </clipPath>
  <clipPath id="peed8961319">
   <path d="M 450.257875 145.203937 
L 450.257875 129.363937 
L 466.097875 129.363937 
L 466.097875 145.203937 
"/>
  </clipPath>
  <clipPath id="p5ace0729e4">
   <path d="M 450.257875 163.043937 
L 450.257875 147.203937 
L 466.097875 147.203937 
L 466.097875 163.043937 
"/>
  </clipPath>
  <clipPath id="p761d645bf6">
   <path d="M 450.257875 180.883937 
L 450.257875 165.043937 
L 466.097875 165.043937 
L 466.097875 180.883937 
"/>
  </clipPath>
  <clipPath id="pc56b2529b1">
   <path d="M 450.257875 198.723937 
L 450.257875 182.883937 
L 466.097875 182.883937 
L 466.097875 198.723937 
"/>
  </clipPath>
  <clipPath id="p33c94eddf1">
   <path d="M 450.257875 216.563937 
L 450.257875 200.723937 
L 466.097875 200.723937 
L 466.097875 216.563937 
"/>
  </clipPath>
  <clipPath id="p480bf7e316">
   <path d="M 450.257875 234.403937 
L 450.257875 218.563937 
L 466.097875 218.563937 
L 466.097875 234.403937 
"/>
  </clipPath>
 </defs>
</svg>
